<svg width="645" height="382" viewBox="0 0 645 382" fill="none" xmlns="http://www.w3.org/2000/svg">
<g clip-path="url(#clip0_1554_1102)">
<path d="M600.091 378.568C603.964 369.913 621.138 328.177 626.128 256.865C631.773 176.302 610.592 97.4548 563.986 47.75C517.379 -1.95476 477.833 10.0424 431.226 22.0396C406.098 28.5157 384.709 20.0998 361.518 11.2511C296.054 -13.743 230.784 2.37259 193.695 64.5968C181.6 84.8906 177.549 104.199 176.685 127.403C175.821 150.621 175.568 175.466 158.632 193.447C136.036 217.442 104.965 214.01 85.1847 253.433C65.4041 292.857 62.5889 332.28 51.2836 340.845C39.9783 349.411 31.503 347.695 23.0426 357.991C17.6506 364.541 15.6993 373.151 14.9844 378.553H600.106L600.091 378.568Z" fill="#38F8AC"/>
<path opacity="0.7" d="M600.091 378.568C603.964 369.913 621.138 328.177 626.128 256.865C631.773 176.302 610.592 97.4548 563.986 47.75C517.379 -1.95476 477.833 10.0424 431.226 22.0396C406.098 28.5157 384.709 20.0998 361.518 11.2511C296.054 -13.743 230.784 2.37259 193.695 64.5968C181.6 84.8906 177.549 104.199 176.685 127.403C175.821 150.621 175.568 175.466 158.632 193.447C136.036 217.442 104.965 214.01 85.1847 253.433C65.4041 292.857 62.5889 332.28 51.2836 340.845C39.9783 349.411 31.503 347.695 23.0426 357.991C17.6506 364.541 15.6993 373.151 14.9844 378.553H600.106L600.091 378.568Z" fill="white"/>
<path d="M459.751 78.698C461.136 78.2205 455.476 61.687 454.97 60.1202C451.469 49.4213 442.771 38.9013 430.631 39.1252C418.298 39.3639 404.49 56.2853 392.366 49.3914C382.356 43.7062 376.964 32.6789 365.987 28.2471C345.223 19.8461 345.208 42.02 330 45.5266C318.367 48.2126 314.793 38.3492 304.053 46.422C293.314 54.4947 300.478 58.0759 288.845 59.8666C277.212 61.6572 275.425 58.9713 268.26 61.6572C261.096 64.3431 248.569 77.7877 248.569 77.7877C248.569 77.7877 238.724 74.2065 229.787 77.7877C220.835 81.369 217.26 86.7558 217.26 86.7558H470.475C470.475 86.7558 467.794 76.8924 459.751 78.6831V78.698Z" fill="white"/>
<path d="M580.476 116.898C581.22 116.644 578.197 107.825 577.929 106.99C576.067 101.29 571.42 95.6791 564.955 95.7984C558.372 95.9178 551.013 104.946 544.549 101.275C539.216 98.2456 536.342 92.3664 530.488 89.9938C519.421 85.5173 519.406 97.3354 511.303 99.2156C505.107 100.648 503.185 95.3956 497.466 99.6931C491.746 103.991 495.559 105.901 489.348 106.856C483.152 107.811 482.198 106.378 478.37 107.811C474.557 109.243 467.869 116.42 467.869 116.42C467.869 116.42 462.626 114.51 457.845 116.42C453.078 118.33 451.172 121.195 451.172 121.195H586.181C586.181 121.195 584.751 115.943 580.461 116.898H580.476Z" fill="white"/>
<path d="M299.317 144.832H585.108C588.638 144.832 591.498 147.697 591.498 151.233V362.199H292.912V151.233C292.912 147.697 295.772 144.832 299.302 144.832H299.317Z" fill="#38F8AC" stroke="#263238" stroke-linecap="round" stroke-linejoin="round"/>
<path d="M316.848 161.335H567.591C571.121 161.335 573.981 164.2 573.981 167.737V365.123H310.443V167.737C310.443 164.2 313.303 161.335 316.833 161.335H316.848Z" fill="#263238" stroke="#263238" stroke-linecap="round" stroke-linejoin="round"/>
<path d="M375.779 270.184V251.652L360.574 270.184H375.779ZM375.779 283.461H344.914L342 270.83L375.051 231H392.897V270.092H401V283.461H392.897V296H375.779V283.461Z" fill="#FAFAFC"/>
<path d="M517.352 270.184V251.652L501.889 270.184H517.352ZM517.352 283.461H485.963L483 270.83L516.611 231H534.759V270.092H543V283.461H534.759V296H517.352V283.461Z" fill="#FAFAFC"/>
<path d="M415.137 241.597H413.47V232.031H427.273C423.675 233.767 420.395 236.094 417.571 238.915C416.716 239.768 415.903 240.663 415.137 241.597ZM478.963 227C478.423 227.001 477.906 227.215 477.524 227.595C477.142 227.976 476.927 228.491 476.927 229.03V244.598C476.931 245.134 477.148 245.645 477.529 246.022C477.911 246.399 478.426 246.611 478.963 246.611C479.5 246.611 480.016 246.399 480.397 246.022C480.779 245.645 480.995 245.134 481 244.598V229.03C480.999 228.491 480.785 227.975 480.403 227.595C480.021 227.214 479.503 227 478.963 227H478.963ZM411.968 233.741H408V239.886H411.968L411.968 233.741ZM450.445 245.107C454.218 246.636 457.448 249.251 459.723 252.618C461.999 255.984 463.216 259.95 463.221 264.009C463.221 275.257 454.038 284.407 442.752 284.407C431.465 284.407 422.283 275.257 422.283 264.009C422.283 252.761 431.465 243.61 442.752 243.61H475.424V230.017H442.752C423.944 230.017 408.644 245.266 408.644 264.009C408.644 282.752 423.944 298 442.752 298C461.559 298 476.86 282.752 476.86 264.009C476.872 257.277 474.866 250.695 471.1 245.107H450.445ZM453.985 259.367C453.012 260.33 451.917 261.162 450.727 261.841C450.837 262.241 450.915 262.648 450.963 263.06C451.953 263.365 452.984 263.521 454.021 263.522H454.098C456.471 263.504 458.793 262.838 460.813 261.597L461.505 261.165C461.801 263.118 461.789 265.105 461.471 267.055C459.15 268.092 456.637 268.633 454.094 268.643H453.993C452.62 268.639 451.253 268.455 449.928 268.097C449.722 268.456 449.489 268.799 449.231 269.123C449.714 270.037 450.333 270.874 451.066 271.605C452.751 273.302 454.883 274.49 457.217 275.031L458.019 275.212C456.842 276.8 455.425 278.196 453.818 279.351C451.411 278.436 449.227 277.022 447.41 275.203C446.444 274.233 445.61 273.142 444.928 271.957C444.527 272.066 444.118 272.144 443.705 272.191C443.399 273.178 443.242 274.206 443.242 275.239C443.244 277.63 443.912 279.973 445.172 282.008L445.605 282.697C443.646 282.992 441.652 282.981 439.696 282.664C438.64 280.319 438.097 277.777 438.102 275.207C438.107 273.84 438.291 272.48 438.65 271.161C438.29 270.955 437.946 270.723 437.621 270.466C436.703 270.947 435.864 271.564 435.131 272.294C433.427 273.973 432.235 276.098 431.693 278.424L431.511 279.223C429.917 278.05 428.516 276.638 427.358 275.036C428.276 272.638 429.694 270.461 431.52 268.65C432.493 267.687 433.588 266.856 434.777 266.176C434.668 265.777 434.589 265.369 434.542 264.958C433.551 264.652 432.52 264.497 431.484 264.496H431.422C429.044 264.512 426.716 265.178 424.691 266.42L424 266.852C423.704 264.899 423.715 262.912 424.033 260.963C426.354 259.926 428.867 259.385 431.41 259.374H431.509C432.883 259.378 434.25 259.562 435.576 259.921C435.782 259.561 436.015 259.218 436.273 258.894C435.79 257.98 435.171 257.144 434.438 256.413C432.753 254.715 430.621 253.528 428.287 252.987L427.486 252.806C428.663 251.218 430.08 249.821 431.687 248.667C434.093 249.581 436.277 250.995 438.094 252.814C439.06 253.784 439.895 254.875 440.577 256.061C440.978 255.952 441.386 255.873 441.799 255.826C442.106 254.839 442.262 253.812 442.263 252.779C442.26 250.388 441.592 248.044 440.333 246.009L439.899 245.321C440.843 245.178 441.797 245.107 442.752 245.107H445.693C446.823 247.518 447.407 250.149 447.402 252.811C447.398 254.177 447.213 255.538 446.854 256.857C447.214 257.062 447.558 257.295 447.884 257.551C448.801 257.07 449.64 256.453 450.373 255.723C452.076 254.044 453.268 251.919 453.811 249.593L453.994 248.787C455.592 249.953 456.996 251.362 458.154 252.962C457.237 255.368 455.815 257.552 453.985 259.367ZM447.436 264.008C447.436 263.085 447.161 262.182 446.646 261.415C446.131 260.647 445.4 260.049 444.544 259.695C443.688 259.342 442.746 259.25 441.838 259.43C440.929 259.61 440.095 260.054 439.439 260.707C438.784 261.36 438.338 262.192 438.158 263.097C437.977 264.003 438.07 264.941 438.424 265.794C438.779 266.647 439.379 267.376 440.149 267.889C440.92 268.402 441.825 268.676 442.752 268.676C443.993 268.674 445.184 268.182 446.062 267.307C446.94 266.432 447.434 265.246 447.436 264.009L447.436 264.008Z" fill="#38F8AC"/>
<path d="M588.593 379.762H280.668C264.537 379.762 251.459 369.973 251.459 357.901H617.803C617.803 369.973 604.725 379.762 588.593 379.762Z" fill="#38F8AC" stroke="#263238" stroke-linecap="round" stroke-linejoin="round"/>
<path d="M394.009 182H490.7C493.465 182 495.708 184.248 495.708 187.018V194.886C495.708 197.656 493.465 199.904 490.7 199.904H394.009C391.244 199.904 389 197.656 389 194.886V187.018C389 184.248 391.244 182 394.009 182Z" fill="white" stroke="#263238" stroke-linecap="round" stroke-linejoin="round"/>
<path d="M446.903 185.252H437.807V196.652H446.903V185.252Z" fill="#38F8AC" stroke="#263238" stroke-linecap="round" stroke-linejoin="round"/>
<path d="M435.922 185.252H426.826V196.652H435.922V185.252Z" fill="#38F8AC" stroke="#263238" stroke-linecap="round" stroke-linejoin="round"/>
<path d="M424.934 185.252H415.838V196.652H424.934V185.252Z" fill="#38F8AC" stroke="#263238" stroke-linecap="round" stroke-linejoin="round"/>
<path d="M413.944 185.252H404.848V196.652H413.944V185.252Z" fill="#38F8AC" stroke="#263238" stroke-linecap="round" stroke-linejoin="round"/>
<path d="M402.955 185.252H398.477C395.332 185.252 392.787 187.801 392.787 190.952C392.787 194.103 395.332 196.652 398.477 196.652H402.955V185.252Z" fill="#38F8AC" stroke="#263238" stroke-linecap="round" stroke-linejoin="round"/>
<path d="M457.893 185.252H448.797V196.652H457.893V185.252Z" fill="#38F8AC" stroke="#263238" stroke-linecap="round" stroke-linejoin="round"/>
<path d="M300.255 159.634H219.926" stroke="#263238" stroke-linecap="round" stroke-linejoin="round"/>
<path d="M300.254 242.451H256.582" stroke="#263238" stroke-linecap="round" stroke-linejoin="round"/>
<path d="M248.002 242.451H230.068" stroke="#263238" stroke-linecap="round" stroke-linejoin="round"/>
<path d="M300.255 211.697H210.572" stroke="#263238" stroke-linecap="round" stroke-linejoin="round"/>
<path d="M300.254 196.864H275.305" stroke="#263238" stroke-linecap="round" stroke-linejoin="round"/>
<path d="M300.255 279.427H210.572" stroke="#263238" stroke-linecap="round" stroke-linejoin="round"/>
<path d="M300.254 312.151H275.305" stroke="#263238" stroke-linecap="round" stroke-linejoin="round"/>
<path d="M245.665 173.706H165.336" stroke="#263238" stroke-linecap="round" stroke-linejoin="round"/>
<path d="M152.868 173.706H135.709" stroke="#263238" stroke-linecap="round" stroke-linejoin="round"/>
<path d="M211.822 324.148C211.822 324.148 209.499 313.374 221.117 310.748C232.735 308.122 234.493 322.104 234.776 325.595L211.822 324.133V324.148Z" fill="#38F8AC" stroke="#263238" stroke-linecap="round" stroke-linejoin="round"/>
<path d="M233.912 317.164H223.158V320.074L234.776 325.61C234.776 325.61 235.655 321.537 233.898 317.164H233.912Z" fill="#263238" stroke="#263238" stroke-miterlimit="10"/>
<path d="M55.1868 294.453V348.023C55.1868 348.023 74.9525 354.424 90.354 360.841C105.755 367.242 122.319 376.568 122.319 376.568H296.114C296.114 376.568 279.253 377.15 276.348 374.524C273.444 371.898 274.025 366.078 279.253 362.587C284.481 359.095 314.42 357.931 314.42 357.931C314.42 357.931 420.786 352.111 421.366 350.366C421.947 348.62 421.947 347.157 419.326 346.292C416.704 345.412 373.121 332.609 340.561 328.236C308 323.864 279.238 325.61 272.55 327.655C265.862 329.699 248.137 327.073 235.938 324.745C223.739 322.417 213.268 321.835 213.268 321.835V311.061H202.514V307.853H206.878V292.708C206.878 292.708 193.8 290.663 178.979 295.334C164.159 299.989 148.46 315.717 136.841 322.417C125.223 329.117 112.145 332.609 105.741 332.609C99.3357 332.609 94.9863 330.863 94.9863 330.863V319.224L100.512 313.404V291.573H73.1949C73.1949 291.573 72.897 296.811 68.2497 297.109C63.6025 297.408 55.1719 294.483 55.1719 294.483L55.1868 294.453Z" fill="white" stroke="#263238" stroke-miterlimit="10"/>
<path d="M95.0019 319.582V319.194L100.528 313.374V291.544H73.2105C73.2105 291.544 72.9126 296.781 68.2653 297.08C63.6181 297.378 55.1875 294.453 55.1875 294.453V344.815C61.4136 337.249 73.1509 327.446 95.0019 319.597V319.582Z" fill="#38F8AC" stroke="#263238" stroke-linecap="round" stroke-linejoin="round"/>
<path d="M149.92 353.827H135.605L153.971 376.554H169.879L149.92 353.827Z" fill="#38F8AC" stroke="#263238" stroke-linecap="round" stroke-linejoin="round"/>
<path d="M173.901 353.827H159.572L177.938 376.554H193.861L173.901 353.827Z" fill="#38F8AC" stroke="#263238" stroke-linecap="round" stroke-linejoin="round"/>
<path d="M247.362 368.033C234.493 364.81 227.254 354.335 221.639 343.875C216.008 333.399 202.737 322.924 198.328 323.327C193.919 323.73 183.85 325.342 183.85 325.342C183.85 325.342 180.23 323.73 166.155 315.269C162.059 312.807 157.947 311.136 154.194 309.987C148.102 314.583 142.367 319.134 137.348 322.104C140.073 322.178 143.246 322.298 146.851 322.521C160.122 323.327 164.144 330.579 164.144 330.579C164.144 330.579 168.165 329.773 172.991 329.773C177.817 329.773 192.698 342.263 196.302 355.141C198.626 363.422 206.252 371.704 211.421 376.554H282.351C269.943 373.554 254.467 369.809 247.362 368.018V368.033Z" fill="#38F8AC" stroke="#263238" stroke-linecap="round" stroke-linejoin="round"/>
<path d="M296.113 376.554H288.383C292.524 376.673 296.113 376.554 296.113 376.554Z" fill="#263238" stroke="#263238" stroke-miterlimit="10"/>
<path d="M279.253 362.587C284.481 359.095 314.42 357.931 314.42 357.931C314.42 357.931 352.551 355.842 383.265 353.798C363.827 352.768 306.138 349.948 292.911 352.111C276.929 354.738 245.828 361.423 228.386 369.003C210.944 376.568 188.855 369.301 146.716 364.347C116.867 360.841 91.5452 357.916 79.3164 356.513C83.0253 357.901 86.7937 359.378 90.3387 360.856C105.74 367.257 122.303 376.583 122.303 376.583H288.368C283.513 376.434 277.897 375.957 276.333 374.539C273.429 371.913 274.009 366.093 279.238 362.602L279.253 362.587Z" fill="#263238" stroke="#263238" stroke-miterlimit="10"/>
<path d="M343.109 379.762C359.076 379.762 372.02 366.794 372.02 350.798C372.02 334.802 359.076 321.835 343.109 321.835C327.141 321.835 314.197 334.802 314.197 350.798C314.197 366.794 327.141 379.762 343.109 379.762Z" fill="#263238"/>
<g opacity="0.31">
<path d="M367.134 334.668L342.736 350.127L371.469 345.083C370.709 341.293 369.22 337.772 367.134 334.668Z" fill="white"/>
<path d="M318.129 365.362L343.108 350.783L314.465 354.738C314.986 358.573 316.252 362.169 318.129 365.362Z" fill="white"/>
</g>
<path d="M316.625 362.408L331.371 354.842L315.076 357.841C315.463 359.423 316 360.945 316.64 362.408H316.625Z" fill="white"/>
<path d="M354.34 345.635L370.739 342.174C370.218 340.487 369.533 338.861 368.728 337.324L354.355 345.635H354.34Z" fill="white"/>
<path d="M343.109 367.824C352.495 367.824 360.104 360.201 360.104 350.798C360.104 341.395 352.495 333.772 343.109 333.772C333.722 333.772 326.113 341.395 326.113 350.798C326.113 360.201 333.722 367.824 343.109 367.824Z" fill="#38F8AC" stroke="#263238" stroke-linecap="round" stroke-linejoin="round"/>
<path d="M343.108 355.305C345.592 355.305 347.606 353.287 347.606 350.798C347.606 348.31 345.592 346.292 343.108 346.292C340.623 346.292 338.609 348.31 338.609 350.798C338.609 353.287 340.623 355.305 343.108 355.305Z" fill="#263238"/>
<path d="M382.432 354.141L389.12 362.005H407.426L403.061 352.097L382.432 354.141Z" fill="#263238" stroke="#263238" stroke-miterlimit="10"/>
<path d="M380.107 361.423V375.688H426.893V363.467C426.893 363.467 415.275 362.587 403.642 360.557C392.023 358.513 382.714 359.393 380.107 361.438V361.423Z" fill="white" stroke="#263238" stroke-miterlimit="10"/>
<path d="M278.09 358.796V373.36H244.666V369.287C244.666 369.287 254.839 367.541 260.068 364.049C265.296 360.557 268.781 358.513 278.09 358.811V358.796Z" fill="white" stroke="#263238" stroke-miterlimit="10"/>
<path d="M266.472 334.638H253.394C253.394 334.638 247.868 335.802 248.449 340.756C249.03 345.71 253.096 351.231 255.42 351.231H276.63" stroke="#263238" stroke-linecap="round" stroke-linejoin="round"/>
<path d="M253.395 340.159C254.855 333.459 259.785 335.205 259.785 335.205L258.951 334.623H253.381C253.381 334.623 247.854 335.787 248.435 340.741C249.016 345.695 253.083 351.216 255.406 351.216C255.406 351.216 251.921 346.844 253.366 340.159H253.395Z" fill="#263238" stroke="#263238" stroke-linecap="round" stroke-linejoin="round"/>
<path d="M118.252 344.248C134.815 341.621 165.916 330.564 165.916 330.564C187.425 321.537 213.282 321.835 213.282 321.835" stroke="#263238" stroke-miterlimit="10"/>
<path d="M106.039 350.933C106.039 350.933 156.325 341.323 195.841 334.623C235.373 327.923 257.447 331.415 265.878 329.967C274.308 328.505 278.956 326.177 286.507 325.894" stroke="#263238" stroke-miterlimit="10"/>
<path d="M204.568 292.424L201.664 287.768C201.664 287.768 205.149 285.724 200.785 285.441C196.421 285.142 191.193 285.441 190.612 286.604C190.031 287.768 194.395 287.485 194.395 287.485V292.439H204.568V292.424Z" fill="#263238" stroke="#263238" stroke-miterlimit="10"/>
<path d="M100.081 379.762C116.048 379.762 128.992 366.794 128.992 350.798C128.992 334.802 116.048 321.835 100.081 321.835C84.1139 321.835 71.1699 334.802 71.1699 350.798C71.1699 366.794 84.1139 379.762 100.081 379.762Z" fill="#263238"/>
<g opacity="0.31">
<path d="M124.107 334.668L99.709 350.127L128.442 345.083C127.682 341.293 126.192 337.772 124.107 334.668Z" fill="white"/>
<path d="M75.1017 365.362L100.081 350.783L71.4375 354.738C71.9588 358.573 73.2249 362.169 75.1017 365.362Z" fill="white"/>
</g>
<path d="M73.5979 362.408L88.344 354.842L72.0488 357.841C72.4361 359.423 72.9723 360.945 73.6128 362.408H73.5979Z" fill="white"/>
<path d="M111.312 345.635L127.712 342.174C127.191 340.487 126.505 338.861 125.701 337.324L111.327 345.635H111.312Z" fill="white"/>
<path d="M100.081 367.824C109.467 367.824 117.076 360.201 117.076 350.798C117.076 341.395 109.467 333.772 100.081 333.772C90.695 333.772 83.0859 341.395 83.0859 350.798C83.0859 360.201 90.695 367.824 100.081 367.824Z" fill="#38F8AC" stroke="#263238" stroke-linecap="round" stroke-linejoin="round"/>
<path d="M100.08 355.305C102.565 355.305 104.579 353.287 104.579 350.798C104.579 348.31 102.565 346.292 100.08 346.292C97.596 346.292 95.582 348.31 95.582 350.798C95.582 353.287 97.596 355.305 100.08 355.305Z" fill="#263238"/>
<path d="M190.568 299.691H146.91" stroke="#263238" stroke-linecap="round" stroke-linejoin="round"/>
<path d="M60.9066 312.763H17.2344" stroke="#263238" stroke-linecap="round" stroke-linejoin="round"/>
<path d="M60.9062 331.072H36.1953" stroke="#263238" stroke-linecap="round" stroke-linejoin="round"/>
<path d="M152.287 314.508H127.576" stroke="#263238" stroke-linecap="round" stroke-linejoin="round"/>
<path d="M138.331 299.691H120.383" stroke="#263238" stroke-linecap="round" stroke-linejoin="round"/>
<path d="M2.23438 379.762H642.766" stroke="#263238" stroke-width="3" stroke-linecap="round" stroke-linejoin="round"/>
</g>
<defs>
<clipPath id="clip0_1554_1102">
<rect width="645" height="382" fill="white"/>
</clipPath>
</defs>
</svg>
