<svg width="29" height="30" viewBox="0 0 29 30" fill="none" xmlns="http://www.w3.org/2000/svg">
<path d="M15.5509 24.782C20.8599 24.1664 24.0752 19.6195 23.9104 14.5137C23.7417 9.316 20.5185 4.0917 16.1656 1.34477C15.2584 0.773573 14.5092 2.12871 15.3308 2.74734C18.9185 5.4515 21.579 9.52874 22.0301 14.0505C22.2373 16.0127 21.8216 17.9903 20.842 19.703C19.5677 21.9556 17.4526 22.8902 15.212 23.8897C14.6727 24.1297 15.0653 24.8355 15.5509 24.782Z" fill="#38F8AC"/>
<path d="M10.438 26.6984C12.8381 26.9189 15.4937 27.3341 17.8291 26.5263C17.9137 26.5016 17.9856 26.4453 18.0298 26.3691C18.074 26.2928 18.0871 26.2025 18.0665 26.1168C18.0459 26.0311 17.9932 25.9566 17.9191 25.9088C17.8451 25.861 17.7555 25.8435 17.6689 25.86C15.4891 26.1471 13.391 25.9501 11.2406 25.6587C11.7821 24.3534 12.5487 23.1028 12.8798 21.737C12.91 21.6149 12.8959 21.4861 12.8401 21.3734C12.7842 21.2607 12.6901 21.1715 12.5747 21.1216C12.4592 21.0718 12.3298 21.0645 12.2094 21.1011C12.0891 21.1378 11.9857 21.2159 11.9176 21.3216C11.0342 22.7674 10.357 24.3294 9.90557 25.9625C9.88356 26.0465 9.88044 26.1343 9.89642 26.2197C9.91241 26.3051 9.9471 26.3858 9.99801 26.4562C10.0489 26.5266 10.1148 26.5848 10.1909 26.6267C10.2669 26.6685 10.3514 26.693 10.438 26.6984Z" fill="#38F8AC"/>
</svg>
