<svg width="1600" height="207" viewBox="0 0 1600 207" fill="none" xmlns="http://www.w3.org/2000/svg">
<path d="M71.3445 30.8518L55.8821 11.8996C55.3029 11.1897 55.4108 10.1465 56.1184 9.56921C56.8283 8.99003 57.8715 9.09793 58.4488 9.80551L73.9112 28.7577C74.4904 29.4676 74.3825 30.5108 73.6749 31.0881C72.9669 31.6696 71.9237 31.5617 71.3445 30.8518Z" stroke="#D1E3F4" stroke-miterlimit="10" stroke-linecap="round" stroke-linejoin="round"/>
<path d="M66.2062 35.0432L50.7438 16.091C50.1646 15.3811 50.2725 14.3379 50.9801 13.7606C51.69 13.1814 52.7332 13.2893 53.3105 13.9969L68.7729 32.9491C69.3521 33.659 69.2442 34.7022 68.5366 35.2795C67.8309 35.8591 66.7854 35.7531 66.2062 35.0432Z" stroke="#D1E3F4" stroke-miterlimit="10" stroke-linecap="round" stroke-linejoin="round"/>
<path d="M56.8086 34.0095L45.6098 20.2833C45.0307 19.5734 45.1386 18.5302 45.8462 17.9529C46.556 17.3737 47.5993 17.4816 48.1766 18.1892L59.3753 31.9154C59.9545 32.6253 59.8466 33.6685 59.139 34.2458C58.4315 34.8231 57.3859 34.7171 56.8086 34.0095Z" stroke="#D1E3F4" stroke-miterlimit="10" stroke-linecap="round" stroke-linejoin="round"/>
<path d="M30.5082 24.4635L40.8838 25.5156L56.7179 44.9232C56.7179 44.9232 59.0334 48.9462 63.3159 45.4947L78.811 32.8527C78.811 32.8527 83.0515 30.3174 80.1629 26.6117L61.5065 3.74477C61.5065 3.74477 59.1403 1.39227 55.9392 3.71899L30.5101 24.4658L30.5082 24.4635Z" stroke="#D1E3F4" stroke-miterlimit="10" stroke-linecap="round" stroke-linejoin="round"/>
<path d="M103.466 70.707L92.5268 57.2988C92.117 56.7965 92.1934 56.0585 92.694 55.65C93.1962 55.2403 93.9343 55.3166 94.3427 55.8172L105.282 69.2255C105.692 69.7277 105.615 70.4658 105.115 70.8742C104.614 71.2856 103.876 71.2092 103.466 70.707Z" stroke="#D1E3F4" stroke-miterlimit="10" stroke-linecap="round" stroke-linejoin="round"/>
<path d="M99.831 73.6725L88.8917 60.2643C88.4819 59.7621 88.5582 59.024 89.0588 58.6156C89.5611 58.2058 90.2991 58.2822 90.7076 58.7828L101.647 72.191C102.057 72.6932 101.98 73.4313 101.48 73.8397C100.98 74.2498 100.241 74.1748 99.831 73.6725Z" stroke="#D1E3F4" stroke-miterlimit="10" stroke-linecap="round" stroke-linejoin="round"/>
<path d="M93.1822 72.9411L85.2593 63.2301C84.8496 62.7278 84.9259 61.9898 85.4265 61.5813C85.9288 61.1716 86.6668 61.2479 87.0752 61.7485L94.9981 71.4595C95.4079 71.9618 95.3316 72.6998 94.831 73.1082C94.3304 73.5167 93.5907 73.4417 93.1822 72.9411Z" stroke="#D1E3F4" stroke-miterlimit="10" stroke-linecap="round" stroke-linejoin="round"/>
<path d="M74.5755 66.1871L81.916 66.9314L93.1183 80.6619C93.1183 80.6619 94.7564 83.5081 97.7862 81.0663L108.749 72.1223C108.749 72.1223 111.749 70.3287 109.705 67.707L96.5061 51.5291C96.5061 51.5291 94.8321 49.8647 92.5673 51.5108L74.5768 66.1887L74.5755 66.1871Z" stroke="#D1E3F4" stroke-miterlimit="10" stroke-linecap="round" stroke-linejoin="round"/>
<path d="M40.8365 71.5297L25.374 52.5775C24.7948 51.8676 24.9027 50.8244 25.6103 50.2471C26.3202 49.6679 27.3634 49.7758 27.9407 50.4834L43.4032 69.4355C43.9824 70.1454 43.8745 71.1887 43.1669 71.766C42.4589 72.3475 41.4156 72.2395 40.8365 71.5297Z" stroke="#D1E3F4" stroke-miterlimit="10" stroke-linecap="round" stroke-linejoin="round"/>
<path d="M35.698 75.7208L20.2356 56.7687C19.6564 56.0588 19.7643 55.0156 20.4719 54.4383C21.1818 53.8591 22.225 53.967 22.8023 54.6746L38.2648 73.6267C38.8439 74.3366 38.736 75.3798 38.0284 75.9571C37.3227 76.5367 36.2772 76.4307 35.698 75.7208Z" stroke="#D1E3F4" stroke-miterlimit="10" stroke-linecap="round" stroke-linejoin="round"/>
<path d="M26.3004 74.6872L15.1017 60.961C14.5225 60.2511 14.6304 59.2078 15.338 58.6306C16.0479 58.0514 17.0911 58.1593 17.6684 58.8669L28.8672 72.5931C29.4463 73.3029 29.3384 74.3462 28.6309 74.9235C27.9233 75.5008 26.8777 75.3947 26.3004 74.6872Z" stroke="#D1E3F4" stroke-miterlimit="10" stroke-linecap="round" stroke-linejoin="round"/>
<path d="M-8.54123e-05 65.1411L10.3755 66.1932L26.2096 85.6009C26.2096 85.6009 28.5251 89.6239 32.8076 86.1723L48.3027 73.5303C48.3027 73.5303 52.5432 70.9951 49.6546 67.2894L30.9982 44.4224C30.9982 44.4224 28.632 42.0699 25.4309 44.3966L0.00180014 65.1434L-8.54123e-05 65.1411Z" stroke="#D1E3F4" stroke-miterlimit="10" stroke-linecap="round" stroke-linejoin="round"/>
<path d="M59.7339 107.618L45.8277 123.262C45.3068 123.848 44.4107 123.899 43.8267 123.38C43.2407 122.859 43.1898 121.963 43.709 121.379L57.6152 105.735C58.1361 105.149 59.0322 105.098 59.6162 105.617C60.2039 106.136 60.2548 107.032 59.7339 107.618Z" stroke="#D1E3F4" stroke-miterlimit="10" stroke-linecap="round" stroke-linejoin="round"/>
<path d="M63.975 111.388L50.0688 127.032C49.5479 127.618 48.6518 127.669 48.0678 127.15C47.4818 126.629 47.4309 125.733 47.9501 125.149L61.8563 109.505C62.3772 108.919 63.2733 108.868 63.8573 109.387C64.4431 109.905 64.4959 110.802 63.975 111.388Z" stroke="#D1E3F4" stroke-miterlimit="10" stroke-linecap="round" stroke-linejoin="round"/>
<path d="M64.3812 119.469L54.3095 130.799C53.7886 131.385 52.8926 131.436 52.3085 130.917C51.7225 130.396 51.6716 129.5 52.1908 128.916L62.2625 117.585C62.7834 116.999 63.6794 116.948 64.2635 117.468C64.8476 117.987 64.9003 118.885 64.3812 119.469Z" stroke="#D1E3F4" stroke-miterlimit="10" stroke-linecap="round" stroke-linejoin="round"/>
<path d="M59.8965 142.988L59.3726 134.079L73.6131 118.059C73.6131 118.059 76.6966 115.555 73.1975 112.407L60.4071 101.038C60.4071 101.038 57.6879 97.8005 54.9504 100.745L38.1717 119.621C38.1717 119.621 36.5064 121.94 38.908 124.328L59.8982 142.986L59.8965 142.988Z" stroke="#D1E3F4" stroke-miterlimit="10" stroke-linecap="round" stroke-linejoin="round"/>
<path d="M87.9822 150.556L74.076 166.2C73.5551 166.786 72.659 166.837 72.075 166.317C71.489 165.796 71.4381 164.9 71.9573 164.316L85.8635 148.672C86.3844 148.086 87.2805 148.036 87.8645 148.555C88.4522 149.074 88.5031 149.97 87.9822 150.556Z" stroke="#D1E3F4" stroke-miterlimit="10" stroke-linecap="round" stroke-linejoin="round"/>
<path d="M92.2234 154.326L78.3172 169.97C77.7963 170.556 76.9002 170.607 76.3162 170.087C75.7302 169.566 75.6793 168.67 76.1985 168.086L90.1047 152.442C90.6256 151.856 91.5217 151.806 92.1057 152.325C92.6915 152.842 92.7443 153.74 92.2234 154.326Z" stroke="#D1E3F4" stroke-miterlimit="10" stroke-linecap="round" stroke-linejoin="round"/>
<path d="M92.6294 162.406L82.5578 173.736C82.0369 174.322 81.1408 174.373 80.5568 173.854C79.9708 173.333 79.9199 172.437 80.4391 171.853L90.5108 160.523C91.0317 159.937 91.9277 159.886 92.5118 160.405C93.0958 160.924 93.1486 161.822 92.6294 162.406Z" stroke="#D1E3F4" stroke-miterlimit="10" stroke-linecap="round" stroke-linejoin="round"/>
<path d="M88.1449 185.926L87.621 177.017L101.861 160.997C101.861 160.997 104.945 158.493 101.446 155.345L88.6556 143.975C88.6556 143.975 85.9363 140.738 83.1989 143.683L66.4201 162.558C66.4201 162.558 64.7548 164.878 67.1564 167.265L88.1466 185.924L88.1449 185.926Z" stroke="#D1E3F4" stroke-miterlimit="10" stroke-linecap="round" stroke-linejoin="round"/>
<path d="M37.1351 158.466L23.2289 174.109C22.708 174.695 21.812 174.746 21.2279 174.227C20.6419 173.706 20.5911 172.81 21.1102 172.226L35.0165 156.582C35.5374 155.996 36.4334 155.945 37.0175 156.465C37.6052 156.984 37.656 157.88 37.1351 158.466Z" stroke="#D1E3F4" stroke-miterlimit="10" stroke-linecap="round" stroke-linejoin="round"/>
<path d="M41.3764 162.236L27.4701 177.879C26.9493 178.465 26.0532 178.516 25.4691 177.997C24.8832 177.476 24.8323 176.58 25.3515 175.996L39.2577 160.352C39.7786 159.766 40.6746 159.715 41.2587 160.234C41.8445 160.752 41.8972 161.65 41.3764 162.236Z" stroke="#D1E3F4" stroke-miterlimit="10" stroke-linecap="round" stroke-linejoin="round"/>
<path d="M41.7824 170.316L31.7107 181.646C31.1899 182.232 30.2938 182.283 29.7097 181.764C29.1238 181.243 29.0729 180.347 29.5921 179.763L39.6637 168.433C40.1846 167.847 41.0807 167.796 41.6647 168.315C42.2488 168.834 42.3016 169.732 41.7824 170.316Z" stroke="#D1E3F4" stroke-miterlimit="10" stroke-linecap="round" stroke-linejoin="round"/>
<path d="M37.2979 193.836L36.774 184.927L51.0144 168.907C51.0144 168.907 54.098 166.403 50.5989 163.255L37.8085 151.885C37.8085 151.885 35.0892 148.648 32.3518 151.593L15.5731 170.468C15.5731 170.468 13.9077 172.787 16.3093 175.175L37.2996 193.834L37.2979 193.836Z" stroke="#D1E3F4" stroke-miterlimit="10" stroke-linecap="round" stroke-linejoin="round"/>
<path d="M138.753 99.9775L113.654 99.1184C112.714 99.0862 111.981 98.2977 112.013 97.3606C112.045 96.4205 112.834 95.6872 113.771 95.7193L138.869 96.5784C139.809 96.6106 140.542 97.3991 140.51 98.3362C140.481 99.2764 139.693 100.01 138.753 99.9775Z" stroke="#D1E3F4" stroke-miterlimit="10" stroke-linecap="round" stroke-linejoin="round"/>
<path d="M138.519 106.782L113.42 105.923C112.48 105.891 111.747 105.102 111.779 104.165C111.811 103.225 112.6 102.492 113.537 102.524L138.635 103.383C139.575 103.415 140.309 104.204 140.276 105.141C140.247 106.078 139.459 106.814 138.519 106.782Z" stroke="#D1E3F4" stroke-miterlimit="10" stroke-linecap="round" stroke-linejoin="round"/>
<path d="M131.368 113.346L113.191 112.724C112.251 112.692 111.517 111.903 111.549 110.966C111.582 110.026 112.37 109.293 113.307 109.325L131.485 109.947C132.425 109.979 133.158 110.768 133.126 111.705C133.094 112.642 132.306 113.378 131.368 113.346Z" stroke="#D1E3F4" stroke-miterlimit="10" stroke-linecap="round" stroke-linejoin="round"/>
<path d="M106.214 127.22L114.04 119.912L139.741 120.792C139.741 120.792 144.415 121.722 144.642 116.079L145.345 95.559C145.345 95.559 146.251 90.5681 141.435 90.296L111.152 89.2593C111.152 89.2593 107.735 89.498 107.37 93.5447L106.217 127.22L106.214 127.22Z" stroke="#D1E3F4" stroke-miterlimit="10" stroke-linecap="round" stroke-linejoin="round"/>
<path d="M591.856 99.9775L566.758 99.1184C565.818 99.0862 565.085 98.2977 565.117 97.3606C565.149 96.4205 565.937 95.6872 566.874 95.7193L591.973 96.5784C592.913 96.6106 593.646 97.3991 593.614 98.3362C593.585 99.2764 592.796 100.01 591.856 99.9775Z" stroke="#D1E3F4" stroke-miterlimit="10" stroke-linecap="round" stroke-linejoin="round"/>
<path d="M591.623 106.782L566.524 105.923C565.584 105.891 564.851 105.102 564.883 104.165C564.915 103.225 565.704 102.492 566.641 102.524L591.739 103.383C592.679 103.415 593.412 104.204 593.38 105.141C593.351 106.078 592.563 106.814 591.623 106.782Z" stroke="#D1E3F4" stroke-miterlimit="10" stroke-linecap="round" stroke-linejoin="round"/>
<path d="M584.472 113.346L566.295 112.724C565.355 112.692 564.621 111.903 564.653 110.966C564.686 110.026 565.474 109.293 566.411 109.325L584.589 109.947C585.529 109.979 586.262 110.768 586.23 111.705C586.198 112.642 585.409 113.378 584.472 113.346Z" stroke="#D1E3F4" stroke-miterlimit="10" stroke-linecap="round" stroke-linejoin="round"/>
<path d="M559.318 127.22L567.143 119.912L592.845 120.792C592.845 120.792 597.519 121.722 597.746 116.079L598.449 95.559C598.449 95.559 599.355 90.5681 594.539 90.296L564.256 89.2593C564.256 89.2593 560.839 89.498 560.473 93.5447L559.321 127.22L559.318 127.22Z" stroke="#D1E3F4" stroke-miterlimit="10" stroke-linecap="round" stroke-linejoin="round"/>
<path d="M1051.74 99.9775L1026.64 99.1184C1025.7 99.0862 1024.97 98.2977 1025 97.3606C1025.03 96.4205 1025.82 95.6872 1026.76 95.7193L1051.86 96.5784C1052.8 96.6106 1053.53 97.3991 1053.5 98.3362C1053.47 99.2764 1052.68 100.01 1051.74 99.9775Z" stroke="#D1E3F4" stroke-miterlimit="10" stroke-linecap="round" stroke-linejoin="round"/>
<path d="M1051.51 106.782L1026.41 105.923C1025.47 105.891 1024.73 105.102 1024.77 104.165C1024.8 103.225 1025.59 102.492 1026.52 102.524L1051.62 103.383C1052.56 103.415 1053.3 104.204 1053.26 105.141C1053.23 106.078 1052.45 106.814 1051.51 106.782Z" stroke="#D1E3F4" stroke-miterlimit="10" stroke-linecap="round" stroke-linejoin="round"/>
<path d="M1044.36 113.346L1026.18 112.724C1025.24 112.692 1024.5 111.903 1024.54 110.966C1024.57 110.026 1025.36 109.293 1026.29 109.325L1044.47 109.947C1045.41 109.979 1046.15 110.768 1046.11 111.705C1046.08 112.642 1045.29 113.378 1044.36 113.346Z" stroke="#D1E3F4" stroke-miterlimit="10" stroke-linecap="round" stroke-linejoin="round"/>
<path d="M1019.2 127.22L1027.03 119.912L1052.73 120.792C1052.73 120.792 1057.4 121.722 1057.63 116.079L1058.33 95.559C1058.33 95.559 1059.24 90.5681 1054.42 90.296L1024.14 89.2593C1024.14 89.2593 1020.72 89.498 1020.36 93.5447L1019.2 127.22L1019.2 127.22Z" stroke="#D1E3F4" stroke-miterlimit="10" stroke-linecap="round" stroke-linejoin="round"/>
<path d="M173.449 28.9668L150.552 47.6438C149.695 48.3434 148.434 48.2129 147.737 47.3581C147.038 46.5005 147.168 45.2402 148.023 44.5429L170.919 25.8659C171.777 25.1663 173.037 25.2968 173.734 26.1516C174.437 27.007 174.306 28.2672 173.449 28.9668Z" stroke="#D1E3F4" stroke-miterlimit="10" stroke-linecap="round" stroke-linejoin="round"/>
<path d="M178.513 35.1749L155.617 53.8519C154.759 54.5515 153.499 54.421 152.802 53.5662C152.102 52.7086 152.232 51.4483 153.087 50.751L175.984 32.074C176.841 31.3744 178.101 31.5049 178.799 32.3597C179.499 33.2123 179.371 34.4753 178.513 35.1749Z" stroke="#D1E3F4" stroke-miterlimit="10" stroke-linecap="round" stroke-linejoin="round"/>
<path d="M177.263 46.5263L160.68 60.0533C159.823 60.7528 158.563 60.6224 157.865 59.7675C157.166 58.9099 157.296 57.6497 158.151 56.9524L174.734 43.4255C175.591 42.7259 176.852 42.8563 177.549 43.7112C178.246 44.566 178.118 45.829 177.263 46.5263Z" stroke="#D1E3F4" stroke-miterlimit="10" stroke-linecap="round" stroke-linejoin="round"/>
<path d="M165.727 78.2974L166.999 65.7635L190.446 46.6376C190.446 46.6376 195.306 43.8409 191.137 38.6672L175.867 19.9474C175.867 19.9474 172.804 14.8245 168.327 18.3136L140.702 40.8486C140.702 40.8486 137.859 43.7066 140.67 47.574L165.73 78.2951L165.727 78.2974Z" stroke="#D1E3F4" stroke-miterlimit="10" stroke-linecap="round" stroke-linejoin="round"/>
<path d="M626.552 28.9668L603.656 47.6438C602.799 48.3434 601.538 48.2129 600.841 47.3581C600.141 46.5005 600.272 45.2402 601.127 44.5429L624.023 25.8659C624.881 25.1663 626.141 25.2968 626.838 26.1516C627.541 27.007 627.41 28.2672 626.552 28.9668Z" stroke="#D1E3F4" stroke-miterlimit="10" stroke-linecap="round" stroke-linejoin="round"/>
<path d="M631.617 35.1749L608.721 53.8519C607.863 54.5515 606.603 54.421 605.905 53.5662C605.206 52.7086 605.336 51.4483 606.191 50.751L629.087 32.074C629.945 31.3744 631.205 31.5049 631.903 32.3597C632.603 33.2123 632.475 34.4753 631.617 35.1749Z" stroke="#D1E3F4" stroke-miterlimit="10" stroke-linecap="round" stroke-linejoin="round"/>
<path d="M630.367 46.5263L613.784 60.0533C612.927 60.7528 611.666 60.6224 610.969 59.7675C610.269 58.9099 610.4 57.6497 611.255 56.9524L627.838 43.4255C628.695 42.7259 629.955 42.8563 630.653 43.7112C631.35 44.566 631.222 45.829 630.367 46.5263Z" stroke="#D1E3F4" stroke-miterlimit="10" stroke-linecap="round" stroke-linejoin="round"/>
<path d="M618.831 78.2974L620.103 65.7635L643.55 46.6376C643.55 46.6376 648.41 43.8409 644.241 38.6672L628.97 19.9474C628.97 19.9474 625.908 14.8245 621.431 18.3136L593.805 40.8486C593.805 40.8486 590.963 43.7066 593.774 47.574L618.834 78.2951L618.831 78.2974Z" stroke="#D1E3F4" stroke-miterlimit="10" stroke-linecap="round" stroke-linejoin="round"/>
<path d="M1086.44 28.9668L1063.54 47.6438C1062.68 48.3434 1061.42 48.2129 1060.72 47.3581C1060.02 46.5005 1060.16 45.2402 1061.01 44.5429L1083.91 25.8659C1084.76 25.1663 1086.02 25.2968 1086.72 26.1516C1087.42 27.007 1087.29 28.2672 1086.44 28.9668Z" stroke="#D1E3F4" stroke-miterlimit="10" stroke-linecap="round" stroke-linejoin="round"/>
<path d="M1091.5 35.1749L1068.6 53.8519C1067.75 54.5515 1066.49 54.421 1065.79 53.5662C1065.09 52.7086 1065.22 51.4483 1066.07 50.751L1088.97 32.074C1089.83 31.3744 1091.09 31.5049 1091.79 32.3597C1092.49 33.2123 1092.36 34.4753 1091.5 35.1749Z" stroke="#D1E3F4" stroke-miterlimit="10" stroke-linecap="round" stroke-linejoin="round"/>
<path d="M1090.25 46.5263L1073.67 60.0533C1072.81 60.7528 1071.55 60.6224 1070.85 59.7675C1070.15 58.9099 1070.28 57.6497 1071.14 56.9524L1087.72 43.4255C1088.58 42.7259 1089.84 42.8563 1090.54 43.7112C1091.23 44.566 1091.11 45.829 1090.25 46.5263Z" stroke="#D1E3F4" stroke-miterlimit="10" stroke-linecap="round" stroke-linejoin="round"/>
<path d="M1078.71 78.2974L1079.99 65.7635L1103.43 46.6376C1103.43 46.6376 1108.29 43.8409 1104.12 38.6672L1088.85 19.9474C1088.85 19.9474 1085.79 14.8245 1081.31 18.3136L1053.69 40.8486C1053.69 40.8486 1050.85 43.7066 1053.66 47.574L1078.72 78.2951L1078.71 78.2974Z" stroke="#D1E3F4" stroke-miterlimit="10" stroke-linecap="round" stroke-linejoin="round"/>
<path d="M225.334 38.1764L254.814 40.1893C255.918 40.2647 256.749 41.2212 256.673 42.3218C256.598 43.426 255.642 44.2569 254.541 44.1817L225.062 42.1688C223.958 42.0935 223.127 41.1369 223.202 40.0363C223.274 38.9319 224.23 38.101 225.334 38.1764Z" stroke="#D1E3F4" stroke-miterlimit="10" stroke-linecap="round" stroke-linejoin="round"/>
<path d="M225.88 30.1833L255.359 32.1961C256.463 32.2715 257.294 33.228 257.219 34.3287C257.143 35.4329 256.187 36.2637 255.086 36.1886L225.607 34.1757C224.503 34.1003 223.672 33.1438 223.747 32.0432C223.819 30.9423 224.776 30.1079 225.88 30.1833Z" stroke="#D1E3F4" stroke-miterlimit="10" stroke-linecap="round" stroke-linejoin="round"/>
<path d="M234.55 22.7506L255.901 24.2085C257.005 24.2839 257.836 25.2404 257.76 26.341C257.685 27.4452 256.729 28.276 255.628 28.2009L234.278 26.7431C233.173 26.6677 232.342 25.7112 232.418 24.6105C232.493 23.5099 233.45 22.6755 234.55 22.7506Z" stroke="#D1E3F4" stroke-miterlimit="10" stroke-linecap="round" stroke-linejoin="round"/>
<path d="M264.685 7.44067L255.19 15.7214L225.002 13.6602C225.002 13.6602 219.543 12.3804 219.051 19.0065L217.405 43.1085C217.405 43.1085 216.14 48.9411 221.792 49.4535L257.361 51.8822C257.361 51.8822 261.389 51.738 261.98 46.9941L264.681 7.44043L264.685 7.44067Z" stroke="#D1E3F4" stroke-miterlimit="10" stroke-linecap="round" stroke-linejoin="round"/>
<path d="M678.438 38.1764L707.917 40.1893C709.021 40.2647 709.852 41.2212 709.777 42.3218C709.702 43.426 708.745 44.2569 707.645 44.1817L678.166 42.1688C677.061 42.0935 676.23 41.1369 676.306 40.0363C676.377 38.9319 677.334 38.101 678.438 38.1764Z" stroke="#D1E3F4" stroke-miterlimit="10" stroke-linecap="round" stroke-linejoin="round"/>
<path d="M678.984 30.1833L708.463 32.1961C709.567 32.2715 710.398 33.228 710.323 34.3287C710.247 35.4329 709.291 36.2637 708.19 36.1886L678.711 34.1757C677.607 34.1003 676.776 33.1438 676.851 32.0432C676.923 30.9423 677.88 30.1079 678.984 30.1833Z" stroke="#D1E3F4" stroke-miterlimit="10" stroke-linecap="round" stroke-linejoin="round"/>
<path d="M687.654 22.7506L709.004 24.2085C710.109 24.2839 710.939 25.2404 710.864 26.341C710.789 27.4452 709.832 28.276 708.732 28.2009L687.381 26.7431C686.277 26.6677 685.446 25.7112 685.521 24.6105C685.597 23.5099 686.553 22.6755 687.654 22.7506Z" stroke="#D1E3F4" stroke-miterlimit="10" stroke-linecap="round" stroke-linejoin="round"/>
<path d="M717.788 7.44067L708.294 15.7214L678.106 13.6602C678.106 13.6602 672.647 12.3804 672.155 19.0065L670.509 43.1085C670.509 43.1085 669.243 48.9411 674.896 49.4535L710.465 51.8822C710.465 51.8822 714.493 51.738 715.084 46.9941L717.785 7.44043L717.788 7.44067Z" stroke="#D1E3F4" stroke-miterlimit="10" stroke-linecap="round" stroke-linejoin="round"/>
<path d="M1138.32 38.1764L1167.8 40.1893C1168.9 40.2647 1169.74 41.2212 1169.66 42.3218C1169.59 43.426 1168.63 44.2569 1167.53 44.1817L1138.05 42.1688C1136.94 42.0935 1136.11 41.1369 1136.19 40.0363C1136.26 38.9319 1137.22 38.101 1138.32 38.1764Z" stroke="#D1E3F4" stroke-miterlimit="10" stroke-linecap="round" stroke-linejoin="round"/>
<path d="M1138.87 30.1833L1168.35 32.1961C1169.45 32.2715 1170.28 33.228 1170.21 34.3287C1170.13 35.4329 1169.17 36.2637 1168.07 36.1886L1138.59 34.1757C1137.49 34.1003 1136.66 33.1438 1136.73 32.0432C1136.81 30.9423 1137.76 30.1079 1138.87 30.1833Z" stroke="#D1E3F4" stroke-miterlimit="10" stroke-linecap="round" stroke-linejoin="round"/>
<path d="M1147.54 22.7506L1168.89 24.2085C1169.99 24.2839 1170.82 25.2404 1170.75 26.341C1170.67 27.4452 1169.72 28.276 1168.62 28.2009L1147.26 26.7431C1146.16 26.6677 1145.33 25.7112 1145.4 24.6105C1145.48 23.5099 1146.44 22.6755 1147.54 22.7506Z" stroke="#D1E3F4" stroke-miterlimit="10" stroke-linecap="round" stroke-linejoin="round"/>
<path d="M1177.67 7.44067L1168.18 15.7214L1137.99 13.6602C1137.99 13.6602 1132.53 12.3804 1132.04 19.0065L1130.39 43.1085C1130.39 43.1085 1129.13 48.9411 1134.78 49.4535L1170.35 51.8822C1170.35 51.8822 1174.38 51.738 1174.97 46.9941L1177.67 7.44043L1177.67 7.44067Z" stroke="#D1E3F4" stroke-miterlimit="10" stroke-linecap="round" stroke-linejoin="round"/>
<path d="M215.492 107.384L191.244 115.287C190.336 115.583 189.362 115.086 189.067 114.181C188.771 113.272 189.268 112.299 190.174 112.003L214.421 104.1C215.33 103.804 216.303 104.302 216.599 105.207C216.898 106.114 216.4 107.088 215.492 107.384Z" stroke="#D1E3F4" stroke-miterlimit="10" stroke-linecap="round" stroke-linejoin="round"/>
<path d="M217.635 113.958L193.387 121.861C192.479 122.157 191.505 121.66 191.21 120.755C190.914 119.846 191.412 118.873 192.317 118.577L216.565 110.674C217.473 110.378 218.447 110.876 218.742 111.781C219.04 112.685 218.543 113.662 217.635 113.958Z" stroke="#D1E3F4" stroke-miterlimit="10" stroke-linecap="round" stroke-linejoin="round"/>
<path d="M213.093 122.706L195.532 128.43C194.624 128.726 193.65 128.229 193.355 127.323C193.059 126.415 193.556 125.441 194.461 125.146L212.023 119.422C212.931 119.126 213.905 119.624 214.2 120.529C214.495 121.434 213.999 122.411 213.093 122.706Z" stroke="#D1E3F4" stroke-miterlimit="10" stroke-linecap="round" stroke-linejoin="round"/>
<path d="M193.912 144.688L198.84 134.995L223.67 126.902C223.67 126.902 228.454 126.164 226.709 120.701L220.247 100.876C220.247 100.876 219.378 95.7988 214.687 97.213L185.431 106.749C185.431 106.749 182.253 108.164 183.311 112.153L193.915 144.687L193.912 144.688Z" stroke="#D1E3F4" stroke-miterlimit="10" stroke-linecap="round" stroke-linejoin="round"/>
<path d="M668.596 107.384L644.348 115.287C643.44 115.583 642.466 115.086 642.171 114.181C641.875 113.272 642.372 112.299 643.278 112.003L667.525 104.1C668.434 103.804 669.407 104.302 669.702 105.207C670.001 106.114 669.504 107.088 668.596 107.384Z" stroke="#D1E3F4" stroke-miterlimit="10" stroke-linecap="round" stroke-linejoin="round"/>
<path d="M670.739 113.958L646.491 121.861C645.583 122.157 644.609 121.66 644.314 120.755C644.018 119.846 644.515 118.873 645.421 118.577L669.668 110.674C670.577 110.378 671.551 110.876 671.846 111.781C672.144 112.685 671.647 113.662 670.739 113.958Z" stroke="#D1E3F4" stroke-miterlimit="10" stroke-linecap="round" stroke-linejoin="round"/>
<path d="M666.197 122.706L648.636 128.43C647.727 128.726 646.754 128.229 646.459 127.323C646.162 126.415 646.66 125.441 647.565 125.146L665.127 119.422C666.035 119.126 667.009 119.624 667.304 120.529C667.599 121.434 667.103 122.411 666.197 122.706Z" stroke="#D1E3F4" stroke-miterlimit="10" stroke-linecap="round" stroke-linejoin="round"/>
<path d="M647.016 144.688L651.944 134.995L676.774 126.902C676.774 126.902 681.558 126.164 679.813 120.701L673.351 100.876C673.351 100.876 672.482 95.7988 667.791 97.213L638.535 106.749C638.535 106.749 635.357 108.164 636.415 112.153L647.019 144.687L647.016 144.688Z" stroke="#D1E3F4" stroke-miterlimit="10" stroke-linecap="round" stroke-linejoin="round"/>
<path d="M1128.48 107.384L1104.23 115.287C1103.32 115.583 1102.35 115.086 1102.05 114.181C1101.76 113.272 1102.26 112.299 1103.16 112.003L1127.41 104.1C1128.32 103.804 1129.29 104.302 1129.59 105.207C1129.88 106.114 1129.39 107.088 1128.48 107.384Z" stroke="#D1E3F4" stroke-miterlimit="10" stroke-linecap="round" stroke-linejoin="round"/>
<path d="M1130.62 113.958L1106.37 121.861C1105.47 122.157 1104.49 121.66 1104.2 120.755C1103.9 119.846 1104.4 118.873 1105.3 118.577L1129.55 110.674C1130.46 110.378 1131.43 110.876 1131.73 111.781C1132.03 112.685 1131.53 113.662 1130.62 113.958Z" stroke="#D1E3F4" stroke-miterlimit="10" stroke-linecap="round" stroke-linejoin="round"/>
<path d="M1126.08 122.706L1108.52 128.43C1107.61 128.726 1106.64 128.229 1106.34 127.323C1106.05 126.415 1106.54 125.441 1107.45 125.146L1125.01 119.422C1125.92 119.126 1126.89 119.624 1127.19 120.529C1127.48 121.434 1126.99 122.411 1126.08 122.706Z" stroke="#D1E3F4" stroke-miterlimit="10" stroke-linecap="round" stroke-linejoin="round"/>
<path d="M1106.9 144.688L1111.83 134.995L1136.66 126.902C1136.66 126.902 1141.44 126.164 1139.7 120.701L1133.23 100.876C1133.23 100.876 1132.37 95.7988 1127.67 97.213L1098.42 106.749C1098.42 106.749 1095.24 108.164 1096.3 112.153L1106.9 144.687L1106.9 144.688Z" stroke="#D1E3F4" stroke-miterlimit="10" stroke-linecap="round" stroke-linejoin="round"/>
<path d="M227.921 168.4L203.673 176.304C202.765 176.6 201.791 176.102 201.496 175.197C201.2 174.289 201.698 173.315 202.603 173.02L226.851 165.116C227.759 164.82 228.733 165.318 229.028 166.223C229.327 167.131 228.829 168.104 227.921 168.4Z" stroke="#D1E3F4" stroke-miterlimit="10" stroke-linecap="round" stroke-linejoin="round"/>
<path d="M230.064 174.974L205.817 182.878C204.908 183.174 203.935 182.676 203.639 181.771C203.343 180.863 203.841 179.889 204.746 179.594L228.994 171.691C229.902 171.394 230.876 171.892 231.171 172.797C231.469 173.702 230.973 174.678 230.064 174.974Z" stroke="#D1E3F4" stroke-miterlimit="10" stroke-linecap="round" stroke-linejoin="round"/>
<path d="M225.523 183.723L207.961 189.447C207.053 189.743 206.079 189.245 205.784 188.34C205.488 187.432 205.985 186.458 206.891 186.163L224.452 180.439C225.361 180.143 226.334 180.64 226.629 181.545C226.925 182.451 226.428 183.427 225.523 183.723Z" stroke="#D1E3F4" stroke-miterlimit="10" stroke-linecap="round" stroke-linejoin="round"/>
<path d="M206.342 205.705L211.269 196.011L236.1 187.918C236.1 187.918 240.883 187.181 239.138 181.717L232.677 161.893C232.677 161.893 231.807 156.815 227.117 158.229L197.86 167.765C197.86 167.765 194.682 169.181 195.74 173.169L206.345 205.704L206.342 205.705Z" stroke="#D1E3F4" stroke-miterlimit="10" stroke-linecap="round" stroke-linejoin="round"/>
<path d="M681.025 168.4L656.777 176.304C655.869 176.6 654.895 176.102 654.6 175.197C654.304 174.289 654.802 173.315 655.707 173.02L679.955 165.116C680.863 164.82 681.837 165.318 682.132 166.223C682.431 167.131 681.933 168.104 681.025 168.4Z" stroke="#D1E3F4" stroke-miterlimit="10" stroke-linecap="round" stroke-linejoin="round"/>
<path d="M683.168 174.974L658.92 182.878C658.012 183.174 657.038 182.676 656.743 181.771C656.447 180.863 656.945 179.889 657.85 179.594L682.098 171.691C683.006 171.394 683.98 171.892 684.275 172.797C684.573 173.702 684.076 174.678 683.168 174.974Z" stroke="#D1E3F4" stroke-miterlimit="10" stroke-linecap="round" stroke-linejoin="round"/>
<path d="M678.626 183.723L661.065 189.447C660.157 189.743 659.183 189.245 658.888 188.34C658.592 187.432 659.089 186.458 659.995 186.163L677.556 180.439C678.464 180.143 679.438 180.64 679.733 181.545C680.028 182.451 679.532 183.427 678.626 183.723Z" stroke="#D1E3F4" stroke-miterlimit="10" stroke-linecap="round" stroke-linejoin="round"/>
<path d="M659.445 205.705L664.373 196.011L689.204 187.918C689.204 187.918 693.987 187.181 692.242 181.717L685.78 161.893C685.78 161.893 684.911 156.815 680.221 158.229L650.964 167.765C650.964 167.765 647.786 169.181 648.844 173.169L659.448 205.704L659.445 205.705Z" stroke="#D1E3F4" stroke-miterlimit="10" stroke-linecap="round" stroke-linejoin="round"/>
<path d="M563.512 155.971L539.264 163.874C538.356 164.171 537.382 163.673 537.087 162.768C536.791 161.859 537.288 160.886 538.194 160.591L562.441 152.687C563.35 152.391 564.323 152.889 564.619 153.794C564.918 154.701 564.42 155.675 563.512 155.971Z" stroke="#D1E3F4" stroke-miterlimit="10" stroke-linecap="round" stroke-linejoin="round"/>
<path d="M565.655 162.545L541.407 170.449C540.499 170.745 539.525 170.247 539.23 169.342C538.934 168.433 539.431 167.46 540.337 167.165L564.584 159.261C565.493 158.965 566.467 159.463 566.762 160.368C567.06 161.272 566.563 162.249 565.655 162.545Z" stroke="#D1E3F4" stroke-miterlimit="10" stroke-linecap="round" stroke-linejoin="round"/>
<path d="M561.113 171.293L543.552 177.017C542.644 177.313 541.67 176.816 541.375 175.911C541.079 175.002 541.576 174.028 542.481 173.733L560.043 168.009C560.951 167.713 561.925 168.211 562.22 169.116C562.515 170.021 562.019 170.998 561.113 171.293Z" stroke="#D1E3F4" stroke-miterlimit="10" stroke-linecap="round" stroke-linejoin="round"/>
<path d="M541.932 193.275L546.86 183.582L571.69 175.489C571.69 175.489 576.474 174.751 574.729 169.288L568.267 149.463C568.267 149.463 567.398 144.386 562.707 145.8L533.451 155.336C533.451 155.336 530.273 156.752 531.331 160.74L541.935 193.274L541.932 193.275Z" stroke="#D1E3F4" stroke-miterlimit="10" stroke-linecap="round" stroke-linejoin="round"/>
<path d="M1013.23 155.971L988.978 163.874C988.07 164.171 987.096 163.673 986.801 162.768C986.505 161.859 987.002 160.886 987.908 160.591L1012.16 152.687C1013.06 152.391 1014.04 152.889 1014.33 153.794C1014.63 154.701 1014.13 155.675 1013.23 155.971Z" stroke="#D1E3F4" stroke-miterlimit="10" stroke-linecap="round" stroke-linejoin="round"/>
<path d="M1015.37 162.545L991.121 170.449C990.213 170.745 989.239 170.247 988.944 169.342C988.648 168.433 989.146 167.46 990.051 167.165L1014.3 159.261C1015.21 158.965 1016.18 159.463 1016.48 160.368C1016.77 161.272 1016.28 162.249 1015.37 162.545Z" stroke="#D1E3F4" stroke-miterlimit="10" stroke-linecap="round" stroke-linejoin="round"/>
<path d="M1010.83 171.293L993.266 177.017C992.357 177.313 991.384 176.816 991.089 175.911C990.793 175.002 991.29 174.028 992.195 173.733L1009.76 168.009C1010.67 167.713 1011.64 168.211 1011.93 169.116C1012.23 170.021 1011.73 170.998 1010.83 171.293Z" stroke="#D1E3F4" stroke-miterlimit="10" stroke-linecap="round" stroke-linejoin="round"/>
<path d="M991.646 193.275L996.574 183.582L1021.4 175.489C1021.4 175.489 1026.19 174.751 1024.44 169.288L1017.98 149.463C1017.98 149.463 1017.11 144.386 1012.42 145.8L983.165 155.336C983.165 155.336 979.987 156.752 981.045 160.74L991.649 193.274L991.646 193.275Z" stroke="#D1E3F4" stroke-miterlimit="10" stroke-linecap="round" stroke-linejoin="round"/>
<path d="M1140.91 168.4L1116.66 176.304C1115.75 176.6 1114.78 176.102 1114.48 175.197C1114.19 174.289 1114.68 173.315 1115.59 173.02L1139.84 165.116C1140.75 164.82 1141.72 165.318 1142.01 166.223C1142.31 167.131 1141.82 168.104 1140.91 168.4Z" stroke="#D1E3F4" stroke-miterlimit="10" stroke-linecap="round" stroke-linejoin="round"/>
<path d="M1143.05 174.974L1118.8 182.878C1117.9 183.174 1116.92 182.676 1116.63 181.771C1116.33 180.863 1116.83 179.889 1117.73 179.594L1141.98 171.691C1142.89 171.394 1143.86 171.892 1144.16 172.797C1144.46 173.702 1143.96 174.678 1143.05 174.974Z" stroke="#D1E3F4" stroke-miterlimit="10" stroke-linecap="round" stroke-linejoin="round"/>
<path d="M1138.51 183.723L1120.95 189.447C1120.04 189.743 1119.07 189.245 1118.77 188.34C1118.48 187.432 1118.97 186.458 1119.88 186.163L1137.44 180.439C1138.35 180.143 1139.32 180.64 1139.62 181.545C1139.91 182.451 1139.42 183.427 1138.51 183.723Z" stroke="#D1E3F4" stroke-miterlimit="10" stroke-linecap="round" stroke-linejoin="round"/>
<path d="M1119.33 205.705L1124.26 196.011L1149.09 187.918C1149.09 187.918 1153.87 187.181 1152.13 181.717L1145.66 161.893C1145.66 161.893 1144.79 156.815 1140.1 158.229L1110.85 167.765C1110.85 167.765 1107.67 169.181 1108.73 173.169L1119.33 205.704L1119.33 205.705Z" stroke="#D1E3F4" stroke-miterlimit="10" stroke-linecap="round" stroke-linejoin="round"/>
<path d="M169.931 165.988L144.485 164.27C143.532 164.206 142.815 163.381 142.879 162.431C142.943 161.478 143.768 160.76 144.718 160.824L170.163 162.541C171.117 162.606 171.834 163.431 171.77 164.381C171.709 165.334 170.884 166.052 169.931 165.988Z" stroke="#D1E3F4" stroke-miterlimit="10" stroke-linecap="round" stroke-linejoin="round"/>
<path d="M169.466 172.886L144.02 171.169C143.067 171.105 142.349 170.28 142.413 169.33C142.478 168.377 143.303 167.659 144.253 167.723L169.698 169.44C170.651 169.505 171.369 170.33 171.305 171.28C171.244 172.23 170.419 172.951 169.466 172.886Z" stroke="#D1E3F4" stroke-miterlimit="10" stroke-linecap="round" stroke-linejoin="round"/>
<path d="M161.987 179.307L143.558 178.064C142.605 177.999 141.887 177.174 141.952 176.224C142.016 175.271 142.841 174.554 143.791 174.618L162.22 175.861C163.173 175.926 163.891 176.751 163.827 177.701C163.763 178.651 162.937 179.372 161.987 179.307Z" stroke="#D1E3F4" stroke-miterlimit="10" stroke-linecap="round" stroke-linejoin="round"/>
<path d="M135.988 192.543L144.177 185.389L170.234 187.147C170.234 187.147 174.947 188.248 175.368 182.529L176.772 161.725C176.772 161.725 177.86 156.69 172.981 156.251L142.279 154.179C142.279 154.179 138.803 154.306 138.295 158.401L135.991 192.543L135.988 192.543Z" stroke="#D1E3F4" stroke-miterlimit="10" stroke-linecap="round" stroke-linejoin="round"/>
<path d="M623.035 165.988L597.589 164.27C596.636 164.206 595.918 163.381 595.983 162.431C596.047 161.478 596.872 160.76 597.822 160.824L623.267 162.541C624.22 162.606 624.938 163.431 624.874 164.381C624.813 165.334 623.988 166.052 623.035 165.988Z" stroke="#D1E3F4" stroke-miterlimit="10" stroke-linecap="round" stroke-linejoin="round"/>
<path d="M622.57 172.886L597.124 171.169C596.171 171.105 595.453 170.28 595.517 169.33C595.582 168.377 596.407 167.659 597.357 167.723L622.802 169.44C623.755 169.505 624.473 170.33 624.409 171.28C624.348 172.23 623.523 172.951 622.57 172.886Z" stroke="#D1E3F4" stroke-miterlimit="10" stroke-linecap="round" stroke-linejoin="round"/>
<path d="M615.091 179.307L596.662 178.064C595.709 177.999 594.991 177.174 595.055 176.224C595.12 175.271 595.945 174.554 596.895 174.618L615.324 175.861C616.277 175.926 616.995 176.751 616.931 177.701C616.866 178.651 616.041 179.372 615.091 179.307Z" stroke="#D1E3F4" stroke-miterlimit="10" stroke-linecap="round" stroke-linejoin="round"/>
<path d="M589.092 192.543L597.281 185.389L623.338 187.147C623.338 187.147 628.051 188.248 628.471 182.529L629.875 161.725C629.875 161.725 630.964 156.69 626.084 156.251L595.383 154.179C595.383 154.179 591.906 154.306 591.399 158.401L589.095 192.543L589.092 192.543Z" stroke="#D1E3F4" stroke-miterlimit="10" stroke-linecap="round" stroke-linejoin="round"/>
<path d="M1082.92 165.988L1057.47 164.27C1056.52 164.206 1055.8 163.381 1055.87 162.431C1055.93 161.478 1056.76 160.76 1057.71 160.824L1083.15 162.541C1084.1 162.606 1084.82 163.431 1084.76 164.381C1084.7 165.334 1083.87 166.052 1082.92 165.988Z" stroke="#D1E3F4" stroke-miterlimit="10" stroke-linecap="round" stroke-linejoin="round"/>
<path d="M1082.45 172.886L1057.01 171.169C1056.05 171.105 1055.34 170.28 1055.4 169.33C1055.47 168.377 1056.29 167.659 1057.24 167.723L1082.69 169.44C1083.64 169.505 1084.36 170.33 1084.29 171.28C1084.23 172.23 1083.41 172.951 1082.45 172.886Z" stroke="#D1E3F4" stroke-miterlimit="10" stroke-linecap="round" stroke-linejoin="round"/>
<path d="M1074.97 179.307L1056.55 178.064C1055.59 177.999 1054.87 177.174 1054.94 176.224C1055 175.271 1055.83 174.554 1056.78 174.618L1075.21 175.861C1076.16 175.926 1076.88 176.751 1076.81 177.701C1076.75 178.651 1075.92 179.372 1074.97 179.307Z" stroke="#D1E3F4" stroke-miterlimit="10" stroke-linecap="round" stroke-linejoin="round"/>
<path d="M1048.98 192.543L1057.16 185.389L1083.22 187.147C1083.22 187.147 1087.93 188.248 1088.35 182.529L1089.76 161.725C1089.76 161.725 1090.85 156.69 1085.97 156.251L1055.27 154.179C1055.27 154.179 1051.79 154.306 1051.28 158.401L1048.98 192.543L1048.98 192.543Z" stroke="#D1E3F4" stroke-miterlimit="10" stroke-linecap="round" stroke-linejoin="round"/>
<path d="M280.657 84.7274L257.793 73.4282C256.937 73.0049 256.589 71.9684 257.01 71.1148C257.434 70.2584 258.47 69.9098 259.324 70.3317L282.187 81.6309C283.044 82.0542 283.392 83.0907 282.97 83.9443C282.55 84.8021 281.513 85.1506 280.657 84.7274Z" stroke="#D1E3F4" stroke-miterlimit="10" stroke-linecap="round" stroke-linejoin="round"/>
<path d="M277.594 90.9264L254.73 79.6272C253.874 79.2039 253.525 78.1674 253.947 77.3138C254.371 76.4574 255.407 76.1089 256.261 76.5307L279.124 87.83C279.981 88.2532 280.329 89.2897 279.907 90.1433C279.488 90.9983 278.45 91.3497 277.594 90.9264Z" stroke="#D1E3F4" stroke-miterlimit="10" stroke-linecap="round" stroke-linejoin="round"/>
<path d="M268.231 94.007L251.672 85.8234C250.816 85.4002 250.467 84.3637 250.889 83.5101C251.312 82.6537 252.349 82.3051 253.202 82.727L269.761 90.9105C270.618 91.3338 270.966 92.3703 270.544 93.2239C270.123 94.0775 269.085 94.4288 268.231 94.007Z" stroke="#D1E3F4" stroke-miterlimit="10" stroke-linecap="round" stroke-linejoin="round"/>
<path d="M239.148 96.3168L249.448 92.8303L272.861 104.401C272.861 104.401 276.797 107.217 279.369 102.091L288.607 83.3983C288.607 83.3983 291.535 79.1598 287.192 76.8922L259.606 63.259C259.606 63.259 256.344 62.0495 254.312 65.6409L239.151 96.3181L239.148 96.3168Z" stroke="#D1E3F4" stroke-miterlimit="10" stroke-linecap="round" stroke-linejoin="round"/>
<path d="M733.761 84.7274L710.897 73.4282C710.041 73.0049 709.692 71.9684 710.114 71.1148C710.537 70.2584 711.574 69.9098 712.428 70.3317L735.291 81.6309C736.148 82.0542 736.496 83.0907 736.074 83.9443C735.654 84.8021 734.617 85.1506 733.761 84.7274Z" stroke="#D1E3F4" stroke-miterlimit="10" stroke-linecap="round" stroke-linejoin="round"/>
<path d="M730.698 90.9264L707.834 79.6272C706.978 79.2039 706.629 78.1674 707.051 77.3138C707.474 76.4574 708.511 76.1089 709.364 76.5307L732.228 87.83C733.084 88.2532 733.433 89.2897 733.011 90.1433C732.592 90.9983 731.554 91.3497 730.698 90.9264Z" stroke="#D1E3F4" stroke-miterlimit="10" stroke-linecap="round" stroke-linejoin="round"/>
<path d="M721.335 94.007L704.776 85.8234C703.919 85.4002 703.571 84.3637 703.993 83.5101C704.416 82.6537 705.452 82.3051 706.306 82.727L722.865 90.9105C723.722 91.3338 724.07 92.3703 723.648 93.2239C723.226 94.0775 722.188 94.4288 721.335 94.007Z" stroke="#D1E3F4" stroke-miterlimit="10" stroke-linecap="round" stroke-linejoin="round"/>
<path d="M692.252 96.3168L702.552 92.8303L725.965 104.401C725.965 104.401 729.901 107.217 732.473 102.091L741.711 83.3983C741.711 83.3983 744.638 79.1598 740.296 76.8922L712.71 63.259C712.71 63.259 709.448 62.0495 707.416 65.6409L692.255 96.3181L692.252 96.3168Z" stroke="#D1E3F4" stroke-miterlimit="10" stroke-linecap="round" stroke-linejoin="round"/>
<path d="M1193.64 84.7274L1170.78 73.4282C1169.92 73.0049 1169.58 71.9684 1170 71.1148C1170.42 70.2584 1171.46 69.9098 1172.31 70.3317L1195.17 81.6309C1196.03 82.0542 1196.38 83.0907 1195.96 83.9443C1195.54 84.8021 1194.5 85.1506 1193.64 84.7274Z" stroke="#D1E3F4" stroke-miterlimit="10" stroke-linecap="round" stroke-linejoin="round"/>
<path d="M1190.58 90.9264L1167.72 79.6272C1166.86 79.2039 1166.51 78.1674 1166.93 77.3138C1167.36 76.4574 1168.39 76.1089 1169.25 76.5307L1192.11 87.83C1192.97 88.2532 1193.32 89.2897 1192.89 90.1433C1192.48 90.9983 1191.44 91.3497 1190.58 90.9264Z" stroke="#D1E3F4" stroke-miterlimit="10" stroke-linecap="round" stroke-linejoin="round"/>
<path d="M1181.22 94.007L1164.66 85.8234C1163.8 85.4002 1163.45 84.3637 1163.88 83.5101C1164.3 82.6537 1165.34 82.3051 1166.19 82.727L1182.75 90.9105C1183.6 91.3338 1183.95 92.3703 1183.53 93.2239C1183.11 94.0775 1182.07 94.4288 1181.22 94.007Z" stroke="#D1E3F4" stroke-miterlimit="10" stroke-linecap="round" stroke-linejoin="round"/>
<path d="M1152.14 96.3168L1162.44 92.8303L1185.85 104.401C1185.85 104.401 1189.78 107.217 1192.36 102.091L1201.59 83.3983C1201.59 83.3983 1204.52 79.1598 1200.18 76.8922L1172.59 63.259C1172.59 63.259 1169.33 62.0495 1167.3 65.6409L1152.14 96.3181L1152.14 96.3168Z" stroke="#D1E3F4" stroke-miterlimit="10" stroke-linecap="round" stroke-linejoin="round"/>
<path d="M330.584 28.5325L312.173 46.1805C311.483 46.8415 310.39 46.8162 309.731 46.1288C309.07 45.4392 309.095 44.3459 309.783 43.687L328.194 26.039C328.883 25.378 329.977 25.4033 330.635 26.0907C331.299 26.7782 331.273 27.8714 330.584 28.5325Z" stroke="#35C946" stroke-miterlimit="10" stroke-linecap="round" stroke-linejoin="round"/>
<path d="M335.369 33.5238L316.958 51.1719C316.268 51.8329 315.175 51.8076 314.516 51.1202C313.855 50.4306 313.88 49.3373 314.568 48.6784L332.979 31.0304C333.668 30.3694 334.762 30.3947 335.42 31.0821C336.082 31.7673 336.058 32.8628 335.369 33.5238Z" stroke="#35C946" stroke-miterlimit="10" stroke-linecap="round" stroke-linejoin="round"/>
<path d="M335.076 43.3762L321.742 56.1579C321.052 56.8189 319.959 56.7936 319.3 56.1062C318.639 55.4166 318.664 54.3233 319.352 53.6644L332.686 40.8828C333.376 40.2217 334.469 40.2471 335.128 40.9344C335.787 41.6218 335.764 42.7173 335.076 43.3762Z" stroke="#35C946" stroke-miterlimit="10" stroke-linecap="round" stroke-linejoin="round"/>
<path d="M327.342 71.5066L327.572 60.6353L346.426 42.5631C346.426 42.5631 350.414 39.8217 346.471 35.658L332.042 20.6053C332.042 20.6053 329.054 16.409 325.443 19.7196L303.229 41.0131C303.229 41.0131 300.981 43.6681 303.665 46.8015L327.345 71.5045L327.342 71.5066Z" stroke="#35C946" stroke-miterlimit="10" stroke-linecap="round" stroke-linejoin="round"/>
<path d="M783.688 28.5325L765.277 46.1805C764.587 46.8415 763.494 46.8162 762.835 46.1288C762.174 45.4392 762.199 44.3459 762.887 43.687L781.298 26.039C781.987 25.378 783.08 25.4033 783.739 26.0907C784.403 26.7782 784.377 27.8714 783.688 28.5325Z" stroke="#D1E3F4" stroke-miterlimit="10" stroke-linecap="round" stroke-linejoin="round"/>
<path d="M788.473 33.5238L770.062 51.1719C769.372 51.8329 768.279 51.8076 767.62 51.1202C766.959 50.4306 766.984 49.3373 767.672 48.6784L786.083 31.0304C786.772 30.3694 787.865 30.3947 788.524 31.0821C789.185 31.7673 789.162 32.8628 788.473 33.5238Z" stroke="#D1E3F4" stroke-miterlimit="10" stroke-linecap="round" stroke-linejoin="round"/>
<path d="M788.18 43.3762L774.846 56.1579C774.156 56.8189 773.063 56.7936 772.404 56.1062C771.743 55.4166 771.768 54.3233 772.456 53.6644L785.79 40.8828C786.48 40.2217 787.573 40.2471 788.232 40.9344C788.891 41.6218 788.867 42.7173 788.18 43.3762Z" stroke="#D1E3F4" stroke-miterlimit="10" stroke-linecap="round" stroke-linejoin="round"/>
<path d="M780.446 71.5066L780.676 60.6353L799.53 42.5631C799.53 42.5631 803.518 39.8217 799.575 35.658L785.146 20.6053C785.146 20.6053 782.158 16.409 778.547 19.7196L756.333 41.0131C756.333 41.0131 754.085 43.6681 756.769 46.8015L780.448 71.5045L780.446 71.5066Z" stroke="#D1E3F4" stroke-miterlimit="10" stroke-linecap="round" stroke-linejoin="round"/>
<path d="M1243.57 28.5325L1225.16 46.1805C1224.47 46.8415 1223.38 46.8162 1222.72 46.1288C1222.06 45.4392 1222.08 44.3459 1222.77 43.687L1241.18 26.039C1241.87 25.378 1242.96 25.4033 1243.62 26.0907C1244.29 26.7782 1244.26 27.8714 1243.57 28.5325Z" stroke="#D1E3F4" stroke-miterlimit="10" stroke-linecap="round" stroke-linejoin="round"/>
<path d="M1248.36 33.5238L1229.94 51.1719C1229.26 51.8329 1228.16 51.8076 1227.5 51.1202C1226.84 50.4306 1226.87 49.3373 1227.55 48.6784L1245.97 31.0304C1246.66 30.3694 1247.75 30.3947 1248.41 31.0821C1249.07 31.7673 1249.05 32.8628 1248.36 33.5238Z" stroke="#D1E3F4" stroke-miterlimit="10" stroke-linecap="round" stroke-linejoin="round"/>
<path d="M1248.06 43.3762L1234.73 56.1579C1234.04 56.8189 1232.95 56.7936 1232.29 56.1062C1231.63 55.4166 1231.65 54.3233 1232.34 53.6644L1245.67 40.8828C1246.36 40.2217 1247.46 40.2471 1248.11 40.9344C1248.77 41.6218 1248.75 42.7173 1248.06 43.3762Z" stroke="#D1E3F4" stroke-miterlimit="10" stroke-linecap="round" stroke-linejoin="round"/>
<path d="M1240.33 71.5066L1240.56 60.6353L1259.41 42.5631C1259.41 42.5631 1263.4 39.8217 1259.46 35.658L1245.03 20.6053C1245.03 20.6053 1242.04 16.409 1238.43 19.7196L1216.22 41.0131C1216.22 41.0131 1213.97 43.6681 1216.65 46.8015L1240.33 71.5045L1240.33 71.5066Z" stroke="#D1E3F4" stroke-miterlimit="10" stroke-linecap="round" stroke-linejoin="round"/>
<path d="M423.974 29.9181L402.834 15.6531C402.042 15.1188 401.836 14.0449 402.368 13.2556C402.902 12.4638 403.976 12.2574 404.766 12.79L425.906 27.0549C426.698 27.5893 426.904 28.6632 426.372 29.4525C425.84 30.2461 424.766 30.4524 423.974 29.9181Z" stroke="#D1E3F4" stroke-miterlimit="10" stroke-linecap="round" stroke-linejoin="round"/>
<path d="M420.107 35.65L398.967 21.3851C398.175 20.8508 397.968 19.7769 398.501 18.9876C399.035 18.1957 400.109 17.9894 400.898 18.522L422.039 32.7869C422.831 33.3212 423.037 34.3951 422.505 35.1844C421.975 35.9755 420.899 36.1844 420.107 35.65Z" stroke="#D1E3F4" stroke-miterlimit="10" stroke-linecap="round" stroke-linejoin="round"/>
<path d="M410.415 37.4464L395.104 27.1149C394.312 26.5806 394.106 25.5067 394.639 24.7174C395.173 23.9255 396.247 23.7192 397.036 24.2518L412.347 34.5833C413.139 35.1176 413.346 36.1915 412.813 36.9808C412.28 37.7701 411.205 37.979 410.415 37.4464Z" stroke="#D1E3F4" stroke-miterlimit="10" stroke-linecap="round" stroke-linejoin="round"/>
<path d="M381.286 35.8329L391.96 33.76L413.609 48.3678C413.609 48.3678 417.132 51.6868 420.368 46.9522L432.031 29.6677C432.031 29.6677 435.501 25.8604 431.502 23.0306L405.994 5.81905C405.994 5.81905 402.924 4.18286 400.429 7.46917L381.289 35.8347L381.286 35.8329Z" stroke="#D1E3F4" stroke-miterlimit="10" stroke-linecap="round" stroke-linejoin="round"/>
<path d="M877.078 29.9181L855.937 15.6531C855.146 15.1188 854.939 14.0449 855.472 13.2556C856.006 12.4638 857.08 12.2574 857.869 12.79L879.01 27.0549C879.802 27.5893 880.008 28.6632 879.476 29.4525C878.944 30.2461 877.87 30.4524 877.078 29.9181Z" stroke="#D1E3F4" stroke-miterlimit="10" stroke-linecap="round" stroke-linejoin="round"/>
<path d="M873.211 35.65L852.07 21.3851C851.278 20.8508 851.072 19.7769 851.605 18.9876C852.139 18.1957 853.213 17.9894 854.002 18.522L875.143 32.7869C875.935 33.3212 876.141 34.3951 875.608 35.1844C875.078 35.9755 874.003 36.1844 873.211 35.65Z" stroke="#D1E3F4" stroke-miterlimit="10" stroke-linecap="round" stroke-linejoin="round"/>
<path d="M863.519 37.4464L848.208 27.1149C847.416 26.5806 847.21 25.5067 847.742 24.7174C848.277 23.9255 849.351 23.7192 850.14 24.2518L865.451 34.5833C866.243 35.1176 866.449 36.1915 865.917 36.9808C865.384 37.7701 864.309 37.979 863.519 37.4464Z" stroke="#D1E3F4" stroke-miterlimit="10" stroke-linecap="round" stroke-linejoin="round"/>
<path d="M834.39 35.8329L845.064 33.76L866.713 48.3678C866.713 48.3678 870.235 51.6868 873.471 46.9522L885.134 29.6677C885.134 29.6677 888.604 25.8604 884.605 23.0306L859.098 5.81905C859.098 5.81905 856.028 4.18286 853.532 7.46917L834.392 35.8347L834.39 35.8329Z" stroke="#D1E3F4" stroke-miterlimit="10" stroke-linecap="round" stroke-linejoin="round"/>
<path d="M568.108 36.2044L546.967 21.9395C546.175 21.4052 545.969 20.3313 546.501 19.542C547.036 18.7501 548.11 18.5438 548.899 19.0764L570.04 33.3413C570.831 33.8756 571.038 34.9495 570.505 35.7388C569.973 36.5324 568.9 36.7387 568.108 36.2044Z" stroke="#D1E3F4" stroke-miterlimit="10" stroke-linecap="round" stroke-linejoin="round"/>
<path d="M564.241 41.9364L543.1 27.6715C542.308 27.1371 542.102 26.0632 542.634 25.2739C543.169 24.4821 544.242 24.2758 545.032 24.8083L566.172 39.0733C566.964 39.6076 567.171 40.6815 566.638 41.4708C566.108 42.2618 565.032 42.4707 564.241 41.9364Z" stroke="#D1E3F4" stroke-miterlimit="10" stroke-linecap="round" stroke-linejoin="round"/>
<path d="M554.549 43.7328L539.238 33.4013C538.446 32.867 538.239 31.7931 538.772 31.0038C539.306 30.2119 540.38 30.0056 541.17 30.5382L556.481 40.8696C557.273 41.404 557.479 42.4779 556.946 43.2672C556.414 44.0565 555.338 44.2653 554.549 43.7328Z" stroke="#D1E3F4" stroke-miterlimit="10" stroke-linecap="round" stroke-linejoin="round"/>
<path d="M525.419 42.1193L536.094 40.0464L557.743 54.6541C557.743 54.6541 561.265 57.9732 564.501 53.2385L576.164 35.9541C576.164 35.9541 579.634 32.1467 575.635 29.317L550.127 12.1054C550.127 12.1054 547.057 10.4692 544.562 13.7555L525.422 42.1211L525.419 42.1193Z" stroke="#D1E3F4" stroke-miterlimit="10" stroke-linecap="round" stroke-linejoin="round"/>
<path d="M1017.82 36.2044L996.681 21.9395C995.889 21.4052 995.683 20.3313 996.215 19.542C996.75 18.7501 997.824 18.5438 998.613 19.0764L1019.75 33.3413C1020.55 33.8756 1020.75 34.9495 1020.22 35.7388C1019.69 36.5324 1018.61 36.7387 1017.82 36.2044Z" stroke="#D1E3F4" stroke-miterlimit="10" stroke-linecap="round" stroke-linejoin="round"/>
<path d="M1013.95 41.9364L992.814 27.6715C992.022 27.1371 991.816 26.0632 992.348 25.2739C992.882 24.4821 993.956 24.2758 994.746 24.8083L1015.89 39.0733C1016.68 39.6076 1016.88 40.6815 1016.35 41.4708C1015.82 42.2618 1014.75 42.4707 1013.95 41.9364Z" stroke="#D1E3F4" stroke-miterlimit="10" stroke-linecap="round" stroke-linejoin="round"/>
<path d="M1004.26 43.7328L988.951 33.4013C988.16 32.867 987.953 31.7931 988.486 31.0038C989.02 30.2119 990.094 30.0056 990.883 30.5382L1006.19 40.8696C1006.99 41.404 1007.19 42.4779 1006.66 43.2672C1006.13 44.0565 1005.05 44.2653 1004.26 43.7328Z" stroke="#D1E3F4" stroke-miterlimit="10" stroke-linecap="round" stroke-linejoin="round"/>
<path d="M975.133 42.1193L985.808 40.0464L1007.46 54.6541C1007.46 54.6541 1010.98 57.9732 1014.22 53.2385L1025.88 35.9541C1025.88 35.9541 1029.35 32.1467 1025.35 29.317L999.841 12.1054C999.841 12.1054 996.771 10.4692 994.276 13.7555L975.136 42.1211L975.133 42.1193Z" stroke="#D1E3F4" stroke-miterlimit="10" stroke-linecap="round" stroke-linejoin="round"/>
<path d="M1336.96 29.9181L1315.82 15.6531C1315.03 15.1188 1314.82 14.0449 1315.35 13.2556C1315.89 12.4638 1316.96 12.2574 1317.75 12.79L1338.89 27.0549C1339.68 27.5893 1339.89 28.6632 1339.36 29.4525C1338.83 30.2461 1337.75 30.4524 1336.96 29.9181Z" stroke="#D1E3F4" stroke-miterlimit="10" stroke-linecap="round" stroke-linejoin="round"/>
<path d="M1333.09 35.65L1311.95 21.3851C1311.16 20.8508 1310.95 19.7769 1311.49 18.9876C1312.02 18.1957 1313.1 17.9894 1313.89 18.522L1335.03 32.7869C1335.82 33.3212 1336.02 34.3951 1335.49 35.1844C1334.96 35.9755 1333.89 36.1844 1333.09 35.65Z" stroke="#D1E3F4" stroke-miterlimit="10" stroke-linecap="round" stroke-linejoin="round"/>
<path d="M1323.4 37.4464L1308.09 27.1149C1307.3 26.5806 1307.09 25.5067 1307.63 24.7174C1308.16 23.9255 1309.23 23.7192 1310.02 24.2518L1325.33 34.5833C1326.13 35.1176 1326.33 36.1915 1325.8 36.9808C1325.27 37.7701 1324.19 37.979 1323.4 37.4464Z" stroke="#D1E3F4" stroke-miterlimit="10" stroke-linecap="round" stroke-linejoin="round"/>
<path d="M1294.27 35.8329L1304.95 33.76L1326.6 48.3678C1326.6 48.3678 1330.12 51.6868 1333.35 46.9522L1345.02 29.6677C1345.02 29.6677 1348.49 25.8604 1344.49 23.0306L1318.98 5.81905C1318.98 5.81905 1315.91 4.18286 1313.42 7.46917L1294.28 35.8347L1294.27 35.8329Z" stroke="#D1E3F4" stroke-miterlimit="10" stroke-linecap="round" stroke-linejoin="round"/>
<path d="M1492.39 29.9181L1471.25 15.6531C1470.46 15.1188 1470.26 14.0449 1470.79 13.2556C1471.32 12.4638 1472.4 12.2574 1473.19 12.79L1494.33 27.0549C1495.12 27.5893 1495.32 28.6632 1494.79 29.4525C1494.26 30.2461 1493.19 30.4524 1492.39 29.9181Z" stroke="#D1E3F4" stroke-miterlimit="10" stroke-linecap="round" stroke-linejoin="round"/>
<path d="M1488.53 35.65L1467.39 21.3851C1466.59 20.8508 1466.39 19.7769 1466.92 18.9876C1467.46 18.1957 1468.53 17.9894 1469.32 18.522L1490.46 32.7869C1491.25 33.3212 1491.46 34.3951 1490.92 35.1844C1490.39 35.9755 1489.32 36.1844 1488.53 35.65Z" stroke="#D1E3F4" stroke-miterlimit="10" stroke-linecap="round" stroke-linejoin="round"/>
<path d="M1478.84 37.4464L1463.52 27.1149C1462.73 26.5806 1462.53 25.5067 1463.06 24.7174C1463.59 23.9255 1464.67 23.7192 1465.46 24.2518L1480.77 34.5833C1481.56 35.1176 1481.77 36.1915 1481.23 36.9808C1480.7 37.7701 1479.62 37.979 1478.84 37.4464Z" stroke="#D1E3F4" stroke-miterlimit="10" stroke-linecap="round" stroke-linejoin="round"/>
<path d="M1449.71 35.8329L1460.38 33.76L1482.03 48.3678C1482.03 48.3678 1485.55 51.6868 1488.79 46.9522L1500.45 29.6677C1500.45 29.6677 1503.92 25.8604 1499.92 23.0306L1474.41 5.81905C1474.41 5.81905 1471.34 4.18286 1468.85 7.46917L1449.71 35.8347L1449.71 35.8329Z" stroke="#D1E3F4" stroke-miterlimit="10" stroke-linecap="round" stroke-linejoin="round"/>
<path d="M356.529 94.5687L331.874 101.093C330.951 101.338 330.007 100.786 329.763 99.8654C329.519 98.942 330.07 97.9977 330.991 97.7541L355.645 91.2297C356.569 90.9853 357.513 91.5369 357.757 92.4574C358.004 93.3801 357.452 94.3243 356.529 94.5687Z" stroke="#D1E3F4" stroke-miterlimit="10" stroke-linecap="round" stroke-linejoin="round"/>
<path d="M358.298 101.253L333.644 107.777C332.72 108.022 331.776 107.47 331.532 106.55C331.288 105.626 331.84 104.682 332.76 104.438L357.415 97.914C358.338 97.6696 359.282 98.2212 359.526 99.1417C359.773 100.061 359.222 101.009 358.298 101.253Z" stroke="#D1E3F4" stroke-miterlimit="10" stroke-linecap="round" stroke-linejoin="round"/>
<path d="M353.271 109.731L335.415 114.457C334.491 114.701 333.547 114.149 333.303 113.229C333.059 112.305 333.611 111.361 334.531 111.118L352.387 106.392C353.311 106.148 354.255 106.699 354.499 107.62C354.742 108.54 354.191 109.488 353.271 109.731Z" stroke="#D1E3F4" stroke-miterlimit="10" stroke-linecap="round" stroke-linejoin="round"/>
<path d="M332.881 130.598L338.348 121.198L363.595 114.516C363.595 114.516 368.412 114.049 366.978 108.497L361.644 88.3392C361.644 88.3392 361.062 83.2209 356.299 84.3686L326.552 92.2408C326.552 92.2408 323.299 93.4749 324.13 97.5166L332.885 130.597L332.881 130.598Z" stroke="#D1E3F4" stroke-miterlimit="10" stroke-linecap="round" stroke-linejoin="round"/>
<path d="M809.633 94.5687L784.978 101.093C784.055 101.338 783.11 100.786 782.867 99.8654C782.622 98.942 783.174 97.9977 784.095 97.7541L808.749 91.2297C809.673 90.9853 810.617 91.5369 810.86 92.4574C811.108 93.3801 810.556 94.3243 809.633 94.5687Z" stroke="#D1E3F4" stroke-miterlimit="10" stroke-linecap="round" stroke-linejoin="round"/>
<path d="M811.402 101.253L786.747 107.777C785.824 108.022 784.88 107.47 784.636 106.55C784.392 105.626 784.943 104.682 785.864 104.438L810.518 97.914C811.442 97.6696 812.386 98.2212 812.63 99.1417C812.876 100.061 812.325 101.009 811.402 101.253Z" stroke="#D1E3F4" stroke-miterlimit="10" stroke-linecap="round" stroke-linejoin="round"/>
<path d="M806.375 109.731L788.519 114.457C787.595 114.701 786.651 114.149 786.407 113.229C786.163 112.305 786.714 111.361 787.635 111.118L805.491 106.392C806.415 106.148 807.359 106.699 807.602 107.62C807.846 108.54 807.295 109.488 806.375 109.731Z" stroke="#D1E3F4" stroke-miterlimit="10" stroke-linecap="round" stroke-linejoin="round"/>
<path d="M785.985 130.598L791.451 121.198L816.699 114.516C816.699 114.516 821.516 114.049 820.082 108.497L814.747 88.3392C814.747 88.3392 814.165 83.2209 809.403 84.3686L779.655 92.2408C779.655 92.2408 776.403 93.4749 777.234 97.5166L785.988 130.597L785.985 130.598Z" stroke="#D1E3F4" stroke-miterlimit="10" stroke-linecap="round" stroke-linejoin="round"/>
<path d="M1269.52 94.5687L1244.86 101.093C1243.94 101.338 1242.99 100.786 1242.75 99.8654C1242.51 98.942 1243.06 97.9977 1243.98 97.7541L1268.63 91.2297C1269.56 90.9853 1270.5 91.5369 1270.74 92.4574C1270.99 93.3801 1270.44 94.3243 1269.52 94.5687Z" stroke="#D1E3F4" stroke-miterlimit="10" stroke-linecap="round" stroke-linejoin="round"/>
<path d="M1271.29 101.253L1246.63 107.777C1245.71 108.022 1244.76 107.47 1244.52 106.55C1244.27 105.626 1244.83 104.682 1245.75 104.438L1270.4 97.914C1271.33 97.6696 1272.27 98.2212 1272.51 99.1417C1272.76 100.061 1272.21 101.009 1271.29 101.253Z" stroke="#D1E3F4" stroke-miterlimit="10" stroke-linecap="round" stroke-linejoin="round"/>
<path d="M1266.26 109.731L1248.4 114.457C1247.48 114.701 1246.53 114.149 1246.29 113.229C1246.05 112.305 1246.6 111.361 1247.52 111.118L1265.37 106.392C1266.3 106.148 1267.24 106.699 1267.49 107.62C1267.73 108.54 1267.18 109.488 1266.26 109.731Z" stroke="#D1E3F4" stroke-miterlimit="10" stroke-linecap="round" stroke-linejoin="round"/>
<path d="M1245.87 130.598L1251.33 121.198L1276.58 114.516C1276.58 114.516 1281.4 114.049 1279.96 108.497L1274.63 88.3392C1274.63 88.3392 1274.05 83.2209 1269.29 84.3686L1239.54 92.2408C1239.54 92.2408 1236.29 93.4749 1237.12 97.5166L1245.87 130.597L1245.87 130.598Z" stroke="#D1E3F4" stroke-miterlimit="10" stroke-linecap="round" stroke-linejoin="round"/>
<path d="M300.873 132.847L275.371 132.619C274.416 132.611 273.651 131.829 273.659 130.877C273.668 129.922 274.45 129.157 275.402 129.165L300.904 129.393C301.859 129.402 302.624 130.184 302.615 131.136C302.61 132.091 301.828 132.856 300.873 132.847Z" stroke="#D1E3F4" stroke-miterlimit="10" stroke-linecap="round" stroke-linejoin="round"/>
<path d="M300.812 139.762L275.309 139.533C274.354 139.525 273.589 138.743 273.598 137.791C273.607 136.836 274.388 136.071 275.34 136.08L300.843 136.308C301.798 136.316 302.562 137.098 302.554 138.05C302.549 139.002 301.767 139.77 300.812 139.762Z" stroke="#D1E3F4" stroke-miterlimit="10" stroke-linecap="round" stroke-linejoin="round"/>
<path d="M293.721 146.608L275.251 146.443C274.296 146.435 273.531 145.653 273.539 144.701C273.548 143.746 274.33 142.981 275.282 142.989L293.752 143.155C294.707 143.163 295.472 143.945 295.463 144.897C295.455 145.849 294.673 146.617 293.721 146.608Z" stroke="#D1E3F4" stroke-miterlimit="10" stroke-linecap="round" stroke-linejoin="round"/>
<path d="M268.539 161.339L276.297 153.72L302.412 153.953C302.412 153.953 307.181 154.777 307.267 149.043L307.453 128.192C307.453 128.192 308.245 123.102 303.349 122.95L272.579 122.674C272.579 122.674 269.116 123.004 268.848 127.122L268.542 161.34L268.539 161.339Z" stroke="#D1E3F4" stroke-miterlimit="10" stroke-linecap="round" stroke-linejoin="round"/>
<path d="M753.977 132.847L728.475 132.619C727.519 132.611 726.755 131.829 726.763 130.877C726.772 129.922 727.553 129.157 728.506 129.165L754.008 129.393C754.963 129.402 755.728 130.184 755.719 131.136C755.714 132.091 754.932 132.856 753.977 132.847Z" stroke="#D1E3F4" stroke-miterlimit="10" stroke-linecap="round" stroke-linejoin="round"/>
<path d="M753.915 139.762L728.413 139.533C727.458 139.525 726.693 138.743 726.702 137.791C726.71 136.836 727.492 136.071 728.444 136.08L753.946 136.308C754.902 136.316 755.666 137.098 755.658 138.05C755.652 139.002 754.871 139.77 753.915 139.762Z" stroke="#D1E3F4" stroke-miterlimit="10" stroke-linecap="round" stroke-linejoin="round"/>
<path d="M746.825 146.608L728.355 146.443C727.399 146.435 726.635 145.653 726.643 144.701C726.652 143.746 727.433 142.981 728.386 142.989L746.856 143.155C747.811 143.163 748.576 143.945 748.567 144.897C748.559 145.849 747.777 146.617 746.825 146.608Z" stroke="#D1E3F4" stroke-miterlimit="10" stroke-linecap="round" stroke-linejoin="round"/>
<path d="M721.643 161.339L729.4 153.72L755.516 153.953C755.516 153.953 760.285 154.777 760.37 149.043L760.557 128.192C760.557 128.192 761.349 123.102 756.453 122.95L725.683 122.674C725.683 122.674 722.219 123.004 721.952 127.122L721.646 161.34L721.643 161.339Z" stroke="#D1E3F4" stroke-miterlimit="10" stroke-linecap="round" stroke-linejoin="round"/>
<path d="M1213.86 132.847L1188.36 132.619C1187.4 132.611 1186.64 131.829 1186.65 130.877C1186.66 129.922 1187.44 129.157 1188.39 129.165L1213.89 129.393C1214.85 129.402 1215.61 130.184 1215.6 131.136C1215.6 132.091 1214.82 132.856 1213.86 132.847Z" stroke="#D1E3F4" stroke-miterlimit="10" stroke-linecap="round" stroke-linejoin="round"/>
<path d="M1213.8 139.762L1188.3 139.533C1187.34 139.525 1186.58 138.743 1186.59 137.791C1186.59 136.836 1187.38 136.071 1188.33 136.08L1213.83 136.308C1214.78 136.316 1215.55 137.098 1215.54 138.05C1215.54 139.002 1214.75 139.77 1213.8 139.762Z" stroke="#D1E3F4" stroke-miterlimit="10" stroke-linecap="round" stroke-linejoin="round"/>
<path d="M1206.71 146.608L1188.24 146.443C1187.28 146.435 1186.52 145.653 1186.53 144.701C1186.54 143.746 1187.32 142.981 1188.27 142.989L1206.74 143.155C1207.69 143.163 1208.46 143.945 1208.45 144.897C1208.44 145.849 1207.66 146.617 1206.71 146.608Z" stroke="#D1E3F4" stroke-miterlimit="10" stroke-linecap="round" stroke-linejoin="round"/>
<path d="M1181.53 161.339L1189.28 153.72L1215.4 153.953C1215.4 153.953 1220.17 154.777 1220.25 149.043L1220.44 128.192C1220.44 128.192 1221.23 123.102 1216.34 122.95L1185.57 122.674C1185.57 122.674 1182.1 123.004 1181.84 127.122L1181.53 161.34L1181.53 161.339Z" stroke="#D1E3F4" stroke-miterlimit="10" stroke-linecap="round" stroke-linejoin="round"/>
<path d="M363.038 169.461L342.333 154.571C341.558 154.013 341.384 152.933 341.94 152.16C342.497 151.385 343.577 151.211 344.35 151.766L365.055 166.657C365.831 167.214 366.005 168.294 365.449 169.067C364.894 169.844 363.814 170.019 363.038 169.461Z" stroke="#D1E3F4" stroke-miterlimit="10" stroke-linecap="round" stroke-linejoin="round"/>
<path d="M359.002 175.075L338.297 160.184C337.521 159.627 337.347 158.547 337.903 157.774C338.461 156.998 339.54 156.824 340.313 157.38L361.018 172.27C361.794 172.828 361.968 173.908 361.412 174.681C360.859 175.456 359.777 175.632 359.002 175.075Z" stroke="#D1E3F4" stroke-miterlimit="10" stroke-linecap="round" stroke-linejoin="round"/>
<path d="M349.261 176.581L334.265 165.796C333.489 165.239 333.315 164.159 333.871 163.386C334.429 162.61 335.509 162.436 336.282 162.992L351.277 173.777C352.053 174.334 352.227 175.414 351.671 176.187C351.115 176.96 350.034 177.137 349.261 176.581Z" stroke="#D1E3F4" stroke-miterlimit="10" stroke-linecap="round" stroke-linejoin="round"/>
<path d="M320.192 174.097L330.924 172.344L352.127 187.593C352.127 187.593 355.548 191.015 358.924 186.38L371.099 169.451C371.099 169.451 374.681 165.749 370.768 162.801L345.786 144.835C345.786 144.835 342.766 143.108 340.174 146.318L320.195 174.099L320.192 174.097Z" stroke="#D1E3F4" stroke-miterlimit="10" stroke-linecap="round" stroke-linejoin="round"/>
<path d="M816.142 169.461L795.437 154.571C794.662 154.013 794.487 152.933 795.043 152.16C795.601 151.385 796.681 151.211 797.454 151.766L818.159 166.657C818.934 167.214 819.108 168.294 818.552 169.067C817.997 169.844 816.918 170.019 816.142 169.461Z" stroke="#D1E3F4" stroke-miterlimit="10" stroke-linecap="round" stroke-linejoin="round"/>
<path d="M812.105 175.075L791.4 160.184C790.625 159.627 790.451 158.547 791.007 157.774C791.564 156.998 792.644 156.824 793.417 157.38L814.122 172.27C814.897 172.828 815.072 173.908 814.516 174.681C813.962 175.456 812.881 175.632 812.105 175.075Z" stroke="#D1E3F4" stroke-miterlimit="10" stroke-linecap="round" stroke-linejoin="round"/>
<path d="M802.364 176.581L787.369 165.796C786.593 165.239 786.419 164.159 786.975 163.386C787.533 162.61 788.612 162.436 789.385 162.992L804.381 173.777C805.157 174.334 805.331 175.414 804.775 176.187C804.219 176.96 803.137 177.137 802.364 176.581Z" stroke="#D1E3F4" stroke-miterlimit="10" stroke-linecap="round" stroke-linejoin="round"/>
<path d="M773.296 174.097L784.028 172.344L805.23 187.593C805.23 187.593 808.652 191.015 812.028 186.38L824.202 169.451C824.202 169.451 827.784 165.749 823.872 162.801L798.89 144.835C798.89 144.835 795.87 143.108 793.278 146.318L773.299 174.099L773.296 174.097Z" stroke="#D1E3F4" stroke-miterlimit="10" stroke-linecap="round" stroke-linejoin="round"/>
<path d="M1276.03 169.461L1255.32 154.571C1254.54 154.013 1254.37 152.933 1254.93 152.16C1255.48 151.385 1256.56 151.211 1257.34 151.766L1278.04 166.657C1278.82 167.214 1278.99 168.294 1278.44 169.067C1277.88 169.844 1276.8 170.019 1276.03 169.461Z" stroke="#D1E3F4" stroke-miterlimit="10" stroke-linecap="round" stroke-linejoin="round"/>
<path d="M1271.99 175.075L1251.28 160.184C1250.51 159.627 1250.33 158.547 1250.89 157.774C1251.45 156.998 1252.53 156.824 1253.3 157.38L1274.01 172.27C1274.78 172.828 1274.95 173.908 1274.4 174.681C1273.85 175.456 1272.76 175.632 1271.99 175.075Z" stroke="#D1E3F4" stroke-miterlimit="10" stroke-linecap="round" stroke-linejoin="round"/>
<path d="M1262.25 176.581L1247.25 165.796C1246.48 165.239 1246.3 164.159 1246.86 163.386C1247.42 162.61 1248.5 162.436 1249.27 162.992L1264.26 173.777C1265.04 174.334 1265.21 175.414 1264.66 176.187C1264.1 176.96 1263.02 177.137 1262.25 176.581Z" stroke="#D1E3F4" stroke-miterlimit="10" stroke-linecap="round" stroke-linejoin="round"/>
<path d="M1233.18 174.097L1243.91 172.344L1265.11 187.593C1265.11 187.593 1268.54 191.015 1271.91 186.38L1284.09 169.451C1284.09 169.451 1287.67 165.749 1283.75 162.801L1258.77 144.835C1258.77 144.835 1255.75 143.108 1253.16 146.318L1233.18 174.099L1233.18 174.097Z" stroke="#D1E3F4" stroke-miterlimit="10" stroke-linecap="round" stroke-linejoin="round"/>
<path d="M428.154 166.764L407.449 151.874C406.673 151.316 406.499 150.236 407.055 149.463C407.613 148.688 408.692 148.514 409.465 149.07L430.17 163.96C430.946 164.518 431.12 165.597 430.564 166.37C430.009 167.148 428.929 167.322 428.154 166.764Z" stroke="#D1E3F4" stroke-miterlimit="10" stroke-linecap="round" stroke-linejoin="round"/>
<path d="M424.117 172.378L403.412 157.488C402.636 156.93 402.462 155.85 403.018 155.077C403.576 154.302 404.655 154.127 405.428 154.683L426.133 169.574C426.909 170.131 427.083 171.211 426.527 171.984C425.974 172.759 424.892 172.936 424.117 172.378Z" stroke="#D1E3F4" stroke-miterlimit="10" stroke-linecap="round" stroke-linejoin="round"/>
<path d="M414.376 173.884L399.38 163.099C398.605 162.542 398.431 161.462 398.986 160.689C399.544 159.914 400.624 159.739 401.397 160.295L416.393 171.08C417.168 171.637 417.342 172.717 416.786 173.49C416.23 174.263 415.149 174.44 414.376 173.884Z" stroke="#D1E3F4" stroke-miterlimit="10" stroke-linecap="round" stroke-linejoin="round"/>
<path d="M385.308 171.401L396.039 169.648L417.242 184.896C417.242 184.896 420.664 188.319 424.04 183.683L436.214 166.754C436.214 166.754 439.796 163.052 435.883 160.104L410.901 142.138C410.901 142.138 407.882 140.411 405.289 143.622L385.31 171.402L385.308 171.401Z" stroke="#D1E3F4" stroke-miterlimit="10" stroke-linecap="round" stroke-linejoin="round"/>
<path d="M881.257 166.764L860.552 151.874C859.777 151.316 859.603 150.236 860.159 149.463C860.716 148.688 861.796 148.514 862.569 149.07L883.274 163.96C884.049 164.518 884.224 165.597 883.668 166.37C883.112 167.148 882.033 167.322 881.257 166.764Z" stroke="#D1E3F4" stroke-miterlimit="10" stroke-linecap="round" stroke-linejoin="round"/>
<path d="M877.22 172.378L856.516 157.488C855.74 156.93 855.566 155.85 856.122 155.077C856.68 154.302 857.759 154.127 858.532 154.683L879.237 169.574C880.013 170.131 880.187 171.211 879.631 171.984C879.077 172.759 877.996 172.936 877.22 172.378Z" stroke="#D1E3F4" stroke-miterlimit="10" stroke-linecap="round" stroke-linejoin="round"/>
<path d="M867.48 173.884L852.484 163.099C851.708 162.542 851.534 161.462 852.09 160.689C852.648 159.914 853.727 159.739 854.501 160.295L869.496 171.08C870.272 171.637 870.446 172.717 869.89 173.49C869.334 174.263 868.253 174.44 867.48 173.884Z" stroke="#D1E3F4" stroke-miterlimit="10" stroke-linecap="round" stroke-linejoin="round"/>
<path d="M838.411 171.401L849.143 169.648L870.346 184.896C870.346 184.896 873.767 188.319 877.143 183.683L889.318 166.754C889.318 166.754 892.9 163.052 888.987 160.104L864.005 142.138C864.005 142.138 860.985 140.411 858.393 143.622L838.414 171.402L838.411 171.401Z" stroke="#D1E3F4" stroke-miterlimit="10" stroke-linecap="round" stroke-linejoin="round"/>
<path d="M1341.14 166.764L1320.44 151.874C1319.66 151.316 1319.49 150.236 1320.04 149.463C1320.6 148.688 1321.68 148.514 1322.45 149.07L1343.16 163.96C1343.93 164.518 1344.11 165.597 1343.55 166.37C1343 167.148 1341.92 167.322 1341.14 166.764Z" stroke="#D1E3F4" stroke-miterlimit="10" stroke-linecap="round" stroke-linejoin="round"/>
<path d="M1337.1 172.378L1316.4 157.488C1315.62 156.93 1315.45 155.85 1316.01 155.077C1316.56 154.302 1317.64 154.127 1318.42 154.683L1339.12 169.574C1339.9 170.131 1340.07 171.211 1339.51 171.984C1338.96 172.759 1337.88 172.936 1337.1 172.378Z" stroke="#D1E3F4" stroke-miterlimit="10" stroke-linecap="round" stroke-linejoin="round"/>
<path d="M1327.36 173.884L1312.37 163.099C1311.59 162.542 1311.42 161.462 1311.97 160.689C1312.53 159.914 1313.61 159.739 1314.38 160.295L1329.38 171.08C1330.16 171.637 1330.33 172.717 1329.77 173.49C1329.22 174.263 1328.14 174.44 1327.36 173.884Z" stroke="#D1E3F4" stroke-miterlimit="10" stroke-linecap="round" stroke-linejoin="round"/>
<path d="M1298.29 171.401L1309.03 169.648L1330.23 184.896C1330.23 184.896 1333.65 188.319 1337.03 183.683L1349.2 166.754C1349.2 166.754 1352.78 163.052 1348.87 160.104L1323.89 142.138C1323.89 142.138 1320.87 140.411 1318.28 143.622L1298.3 171.402L1298.29 171.401Z" stroke="#D1E3F4" stroke-miterlimit="10" stroke-linecap="round" stroke-linejoin="round"/>
<path d="M1496.57 166.764L1475.87 151.874C1475.09 151.316 1474.92 150.236 1475.48 149.463C1476.03 148.688 1477.11 148.514 1477.89 149.07L1498.59 163.96C1499.37 164.518 1499.54 165.597 1498.98 166.37C1498.43 167.148 1497.35 167.322 1496.57 166.764Z" stroke="#D1E3F4" stroke-miterlimit="10" stroke-linecap="round" stroke-linejoin="round"/>
<path d="M1492.54 172.378L1471.83 157.488C1471.06 156.93 1470.88 155.85 1471.44 155.077C1472 154.302 1473.08 154.127 1473.85 154.683L1494.55 169.574C1495.33 170.131 1495.5 171.211 1494.95 171.984C1494.39 172.759 1493.31 172.936 1492.54 172.378Z" stroke="#D1E3F4" stroke-miterlimit="10" stroke-linecap="round" stroke-linejoin="round"/>
<path d="M1482.8 173.884L1467.8 163.099C1467.03 162.542 1466.85 161.462 1467.41 160.689C1467.96 159.914 1469.04 159.739 1469.82 160.295L1484.81 171.08C1485.59 171.637 1485.76 172.717 1485.21 173.49C1484.65 174.263 1483.57 174.44 1482.8 173.884Z" stroke="#D1E3F4" stroke-miterlimit="10" stroke-linecap="round" stroke-linejoin="round"/>
<path d="M1453.73 171.401L1464.46 169.648L1485.66 184.896C1485.66 184.896 1489.08 188.319 1492.46 183.683L1504.63 166.754C1504.63 166.754 1508.22 163.052 1504.3 160.104L1479.32 142.138C1479.32 142.138 1476.3 140.411 1473.71 143.622L1453.73 171.402L1453.73 171.401Z" stroke="#D1E3F4" stroke-miterlimit="10" stroke-linecap="round" stroke-linejoin="round"/>
<path d="M445.182 93.7214L416.866 95.0832C415.805 95.1342 414.907 94.3152 414.856 93.258C414.805 92.1973 415.624 91.2991 416.681 91.2483L444.997 89.8865C446.058 89.8355 446.956 90.6545 447.007 91.7117C447.061 92.7722 446.242 93.6704 445.182 93.7214Z" stroke="#D1E3F4" stroke-miterlimit="10" stroke-linecap="round" stroke-linejoin="round"/>
<path d="M445.552 101.398L417.236 102.76C416.175 102.811 415.277 101.992 415.226 100.935C415.175 99.874 415.994 98.9759 417.051 98.925L445.367 97.5632C446.428 97.5122 447.326 98.3312 447.377 99.3884C447.431 100.445 446.612 101.347 445.552 101.398Z" stroke="#D1E3F4" stroke-miterlimit="10" stroke-linecap="round" stroke-linejoin="round"/>
<path d="M438.116 109.446L417.608 110.432C416.547 110.483 415.649 109.664 415.598 108.607C415.547 107.546 416.366 106.648 417.424 106.597L437.932 105.611C438.992 105.56 439.89 106.379 439.941 107.436C439.992 108.493 439.173 109.395 438.116 109.446Z" stroke="#D1E3F4" stroke-miterlimit="10" stroke-linecap="round" stroke-linejoin="round"/>
<path d="M411.103 127.388L419.229 118.44L448.226 117.046C448.226 117.046 453.571 117.658 453.303 111.289L452.189 88.1378C452.189 88.1378 452.746 82.4389 447.302 82.5795L413.137 84.2226C413.137 84.2226 409.315 84.8081 409.279 89.3947L411.106 127.388L411.103 127.388Z" stroke="#D1E3F4" stroke-miterlimit="10" stroke-linecap="round" stroke-linejoin="round"/>
<path d="M898.286 93.7214L869.969 95.0832C868.909 95.1342 868.011 94.3152 867.96 93.258C867.909 92.1973 868.728 91.2991 869.785 91.2483L898.101 89.8865C899.162 89.8355 900.06 90.6545 900.111 91.7117C900.165 92.7722 899.346 93.6704 898.286 93.7214Z" stroke="#D1E3F4" stroke-miterlimit="10" stroke-linecap="round" stroke-linejoin="round"/>
<path d="M898.655 101.398L870.339 102.76C869.279 102.811 868.381 101.992 868.33 100.935C868.279 99.874 869.098 98.9759 870.155 98.925L898.471 97.5632C899.532 97.5122 900.43 98.3312 900.481 99.3884C900.535 100.445 899.716 101.347 898.655 101.398Z" stroke="#D1E3F4" stroke-miterlimit="10" stroke-linecap="round" stroke-linejoin="round"/>
<path d="M891.22 109.446L870.712 110.432C869.651 110.483 868.753 109.664 868.702 108.607C868.651 107.546 869.47 106.648 870.527 106.597L891.035 105.611C892.096 105.56 892.994 106.379 893.045 107.436C893.096 108.493 892.277 109.395 891.22 109.446Z" stroke="#D1E3F4" stroke-miterlimit="10" stroke-linecap="round" stroke-linejoin="round"/>
<path d="M864.206 127.388L872.333 118.44L901.33 117.046C901.33 117.046 906.675 117.658 906.406 111.289L905.293 88.1378C905.293 88.1378 905.85 82.4389 900.406 82.5795L866.241 84.2226C866.241 84.2226 862.418 84.8081 862.383 89.3947L864.21 127.388L864.206 127.388Z" stroke="#D1E3F4" stroke-miterlimit="10" stroke-linecap="round" stroke-linejoin="round"/>
<path d="M1358.17 93.7214L1329.85 95.0832C1328.79 95.1342 1327.89 94.3152 1327.84 93.258C1327.79 92.1973 1328.61 91.2991 1329.67 91.2483L1357.98 89.8865C1359.04 89.8355 1359.94 90.6545 1359.99 91.7117C1360.05 92.7722 1359.23 93.6704 1358.17 93.7214Z" stroke="#D1E3F4" stroke-miterlimit="10" stroke-linecap="round" stroke-linejoin="round"/>
<path d="M1358.54 101.398L1330.22 102.76C1329.16 102.811 1328.26 101.992 1328.21 100.935C1328.16 99.874 1328.98 98.9759 1330.04 98.925L1358.35 97.5632C1359.41 97.5122 1360.31 98.3312 1360.36 99.3884C1360.42 100.445 1359.6 101.347 1358.54 101.398Z" stroke="#D1E3F4" stroke-miterlimit="10" stroke-linecap="round" stroke-linejoin="round"/>
<path d="M1351.1 109.446L1330.59 110.432C1329.53 110.483 1328.64 109.664 1328.59 108.607C1328.53 107.546 1329.35 106.648 1330.41 106.597L1350.92 105.611C1351.98 105.56 1352.88 106.379 1352.93 107.436C1352.98 108.493 1352.16 109.395 1351.1 109.446Z" stroke="#D1E3F4" stroke-miterlimit="10" stroke-linecap="round" stroke-linejoin="round"/>
<path d="M1324.09 127.388L1332.22 118.44L1361.21 117.046C1361.21 117.046 1366.56 117.658 1366.29 111.289L1365.18 88.1378C1365.18 88.1378 1365.73 82.4389 1360.29 82.5795L1326.12 84.2226C1326.12 84.2226 1322.3 84.8081 1322.27 89.3947L1324.09 127.388L1324.09 127.388Z" stroke="#D1E3F4" stroke-miterlimit="10" stroke-linecap="round" stroke-linejoin="round"/>
<path d="M1513.6 93.7214L1485.29 95.0832C1484.23 95.1342 1483.33 94.3152 1483.28 93.258C1483.23 92.1973 1484.04 91.2991 1485.1 91.2483L1513.42 89.8865C1514.48 89.8355 1515.38 90.6545 1515.43 91.7117C1515.48 92.7722 1514.66 93.6704 1513.6 93.7214Z" stroke="#D1E3F4" stroke-miterlimit="10" stroke-linecap="round" stroke-linejoin="round"/>
<path d="M1513.97 101.398L1485.66 102.76C1484.6 102.811 1483.7 101.992 1483.65 100.935C1483.6 99.874 1484.41 98.9759 1485.47 98.925L1513.79 97.5632C1514.85 97.5122 1515.75 98.3312 1515.8 99.3884C1515.85 100.445 1515.03 101.347 1513.97 101.398Z" stroke="#D1E3F4" stroke-miterlimit="10" stroke-linecap="round" stroke-linejoin="round"/>
<path d="M1506.54 109.446L1486.03 110.432C1484.97 110.483 1484.07 109.664 1484.02 108.607C1483.97 107.546 1484.79 106.648 1485.84 106.597L1506.35 105.611C1507.41 105.56 1508.31 106.379 1508.36 107.436C1508.41 108.493 1507.59 109.395 1506.54 109.446Z" stroke="#D1E3F4" stroke-miterlimit="10" stroke-linecap="round" stroke-linejoin="round"/>
<path d="M1479.52 127.388L1487.65 118.44L1516.65 117.046C1516.65 117.046 1521.99 117.658 1521.72 111.289L1520.61 88.1378C1520.61 88.1378 1521.17 82.4389 1515.72 82.5795L1481.56 84.2226C1481.56 84.2226 1477.73 84.8081 1477.7 89.3947L1479.53 127.388L1479.52 127.388Z" stroke="#D1E3F4" stroke-miterlimit="10" stroke-linecap="round" stroke-linejoin="round"/>
<path d="M499.169 85.3138L496.678 113.553C496.585 114.611 495.651 115.389 494.597 115.296C493.539 115.203 492.761 114.27 492.854 113.216L495.345 84.9764C495.438 83.9186 496.371 83.1398 497.426 83.2328C498.484 83.3227 499.263 84.256 499.169 85.3138Z" stroke="#D1E3F4" stroke-miterlimit="10" stroke-linecap="round" stroke-linejoin="round"/>
<path d="M506.825 85.9885L504.334 114.228C504.241 115.285 503.308 116.064 502.253 115.971C501.195 115.878 500.417 114.945 500.51 113.89L503.001 85.6511C503.094 84.5933 504.027 83.8146 505.082 83.9076C506.136 83.9971 506.919 84.9307 506.825 85.9885Z" stroke="#D1E3F4" stroke-miterlimit="10" stroke-linecap="round" stroke-linejoin="round"/>
<path d="M513.79 94.4468L511.986 114.899C511.893 115.957 510.959 116.736 509.905 116.643C508.847 116.549 508.068 115.616 508.161 114.562L509.966 94.1094C510.059 93.0516 510.992 92.2728 512.046 92.3658C513.101 92.4588 513.883 93.3925 513.79 94.4468Z" stroke="#D1E3F4" stroke-miterlimit="10" stroke-linecap="round" stroke-linejoin="round"/>
<path d="M527.903 123.644L520.14 114.379L522.691 85.4612C522.691 85.4612 524.022 80.2487 517.676 79.6506L494.588 77.6139C494.588 77.6139 489.017 76.2891 488.418 81.7017L485.412 115.774C485.412 115.774 485.474 119.641 490.013 120.298L527.903 123.64L527.903 123.644Z" stroke="#D1E3F4" stroke-miterlimit="10" stroke-linecap="round" stroke-linejoin="round"/>
<path d="M952.273 85.3138L949.782 113.553C949.688 114.611 948.755 115.389 947.701 115.296C946.643 115.203 945.864 114.27 945.957 113.216L948.448 84.9764C948.542 83.9186 949.475 83.1398 950.529 83.2328C951.587 83.3227 952.366 84.256 952.273 85.3138Z" stroke="#D1E3F4" stroke-miterlimit="10" stroke-linecap="round" stroke-linejoin="round"/>
<path d="M959.929 85.9885L957.438 114.228C957.345 115.285 956.411 116.064 955.357 115.971C954.299 115.878 953.52 114.945 953.613 113.89L956.104 85.6511C956.198 84.5933 957.131 83.8146 958.185 83.9076C959.24 83.9971 960.022 84.9307 959.929 85.9885Z" stroke="#D1E3F4" stroke-miterlimit="10" stroke-linecap="round" stroke-linejoin="round"/>
<path d="M966.894 94.4468L965.09 114.899C964.996 115.957 964.063 116.736 963.009 116.643C961.951 116.549 961.172 115.616 961.265 114.562L963.069 94.1094C963.163 93.0516 964.096 92.2728 965.15 92.3658C966.205 92.4588 966.987 93.3925 966.894 94.4468Z" stroke="#D1E3F4" stroke-miterlimit="10" stroke-linecap="round" stroke-linejoin="round"/>
<path d="M981.007 123.644L973.244 114.379L975.795 85.4612C975.795 85.4612 977.126 80.2487 970.779 79.6506L947.691 77.6139C947.691 77.6139 942.121 76.2891 941.522 81.7017L938.516 115.774C938.516 115.774 938.578 119.641 943.117 120.298L981.007 123.64L981.007 123.644Z" stroke="#D1E3F4" stroke-miterlimit="10" stroke-linecap="round" stroke-linejoin="round"/>
<path d="M1412.16 85.3138L1409.67 113.553C1409.57 114.611 1408.64 115.389 1407.58 115.296C1406.53 115.203 1405.75 114.27 1405.84 113.216L1408.33 84.9764C1408.42 83.9186 1409.36 83.1398 1410.41 83.2328C1411.47 83.3227 1412.25 84.256 1412.16 85.3138Z" stroke="#35C946" stroke-miterlimit="10" stroke-linecap="round" stroke-linejoin="round"/>
<path d="M1419.81 85.9885L1417.32 114.228C1417.23 115.285 1416.29 116.064 1415.24 115.971C1414.18 115.878 1413.4 114.945 1413.5 113.89L1415.99 85.6511C1416.08 84.5933 1417.01 83.8146 1418.07 83.9076C1419.12 83.9971 1419.91 84.9307 1419.81 85.9885Z" stroke="#35C946" stroke-miterlimit="10" stroke-linecap="round" stroke-linejoin="round"/>
<path d="M1426.78 94.4468L1424.97 114.899C1424.88 115.957 1423.95 116.736 1422.89 116.643C1421.83 116.549 1421.06 115.616 1421.15 114.562L1422.95 94.1094C1423.05 93.0516 1423.98 92.2728 1425.03 92.3658C1426.09 92.4588 1426.87 93.3925 1426.78 94.4468Z" stroke="#35C946" stroke-miterlimit="10" stroke-linecap="round" stroke-linejoin="round"/>
<path d="M1440.89 123.644L1433.13 114.379L1435.68 85.4612C1435.68 85.4612 1437.01 80.2487 1430.66 79.6506L1407.57 77.6139C1407.57 77.6139 1402 76.2891 1401.4 81.7017L1398.4 115.774C1398.4 115.774 1398.46 119.641 1403 120.298L1440.89 123.64L1440.89 123.644Z" stroke="#35C946" stroke-miterlimit="10" stroke-linecap="round" stroke-linejoin="round"/>
<path d="M1567.59 85.3138L1565.1 113.553C1565 114.611 1564.07 115.389 1563.02 115.296C1561.96 115.203 1561.18 114.27 1561.27 113.216L1563.76 84.9764C1563.86 83.9186 1564.79 83.1398 1565.85 83.2328C1566.9 83.3227 1567.68 84.256 1567.59 85.3138Z" stroke="#D1E3F4" stroke-miterlimit="10" stroke-linecap="round" stroke-linejoin="round"/>
<path d="M1575.24 85.9885L1572.75 114.228C1572.66 115.285 1571.73 116.064 1570.67 115.971C1569.62 115.878 1568.84 114.945 1568.93 113.89L1571.42 85.6511C1571.51 84.5933 1572.45 83.8146 1573.5 83.9076C1574.56 83.9971 1575.34 84.9307 1575.24 85.9885Z" stroke="#D1E3F4" stroke-miterlimit="10" stroke-linecap="round" stroke-linejoin="round"/>
<path d="M1582.21 94.4468L1580.41 114.899C1580.31 115.957 1579.38 116.736 1578.32 116.643C1577.27 116.549 1576.49 115.616 1576.58 114.562L1578.39 94.1094C1578.48 93.0516 1579.41 92.2728 1580.47 92.3658C1581.52 92.4588 1582.3 93.3925 1582.21 94.4468Z" stroke="#D1E3F4" stroke-miterlimit="10" stroke-linecap="round" stroke-linejoin="round"/>
<path d="M1596.32 123.644L1588.56 114.379L1591.11 85.4612C1591.11 85.4612 1592.44 80.2487 1586.1 79.6506L1563.01 77.6139C1563.01 77.6139 1557.44 76.2891 1556.84 81.7017L1553.83 115.774C1553.83 115.774 1553.89 119.641 1558.43 120.298L1596.32 123.64L1596.32 123.644Z" stroke="#D1E3F4" stroke-miterlimit="10" stroke-linecap="round" stroke-linejoin="round"/>
<path d="M476.261 14.9036L473.77 43.1428C473.677 44.2006 472.743 44.9793 471.689 44.8863C470.631 44.793 469.852 43.8597 469.945 42.8054L472.437 14.5663C472.53 13.5085 473.463 12.7297 474.517 12.8227C475.576 12.9126 476.354 13.8459 476.261 14.9036Z" stroke="#D1E3F4" stroke-miterlimit="10" stroke-linecap="round" stroke-linejoin="round"/>
<path d="M483.917 15.5783L481.426 43.8175C481.333 44.8753 480.399 45.6541 479.345 45.5611C478.287 45.4677 477.508 44.5344 477.601 43.4801L480.093 15.241C480.186 14.1832 481.119 13.4044 482.173 13.4974C483.228 13.587 484.01 14.5206 483.917 15.5783Z" stroke="#D1E3F4" stroke-miterlimit="10" stroke-linecap="round" stroke-linejoin="round"/>
<path d="M490.882 24.0366L489.078 44.489C488.984 45.5468 488.051 46.3256 486.997 46.2326C485.939 46.1393 485.16 45.2059 485.253 44.1516L487.057 23.6993C487.151 22.6415 488.084 21.8627 489.138 21.9557C490.193 22.0487 490.975 22.9823 490.882 24.0366Z" stroke="#D1E3F4" stroke-miterlimit="10" stroke-linecap="round" stroke-linejoin="round"/>
<path d="M504.995 53.2338L497.232 43.969L499.783 15.0511C499.783 15.0511 501.114 9.83856 494.768 9.24049L471.679 7.20377C471.679 7.20377 466.109 5.879 465.51 11.2915L462.504 45.3639C462.504 45.3639 462.566 49.2305 467.105 49.8879L504.995 53.2304L504.995 53.2338Z" stroke="#D1E3F4" stroke-miterlimit="10" stroke-linecap="round" stroke-linejoin="round"/>
<path d="M929.365 14.9036L926.874 43.1428C926.78 44.2006 925.847 44.9793 924.793 44.8863C923.735 44.793 922.956 43.8597 923.049 42.8054L925.54 14.5663C925.633 13.5085 926.567 12.7297 927.621 12.8227C928.679 12.9126 929.458 13.8459 929.365 14.9036Z" stroke="#D1E3F4" stroke-miterlimit="10" stroke-linecap="round" stroke-linejoin="round"/>
<path d="M937.021 15.5783L934.53 43.8175C934.436 44.8753 933.503 45.6541 932.449 45.5611C931.391 45.4677 930.612 44.5344 930.705 43.4801L933.196 15.241C933.289 14.1832 934.223 13.4044 935.277 13.4974C936.332 13.587 937.114 14.5206 937.021 15.5783Z" stroke="#D1E3F4" stroke-miterlimit="10" stroke-linecap="round" stroke-linejoin="round"/>
<path d="M943.986 24.0366L942.181 44.489C942.088 45.5468 941.155 46.3256 940.1 46.2326C939.043 46.1393 938.264 45.2059 938.357 44.1516L940.161 23.6993C940.254 22.6415 941.188 21.8627 942.242 21.9557C943.296 22.0487 944.079 22.9823 943.986 24.0366Z" stroke="#D1E3F4" stroke-miterlimit="10" stroke-linecap="round" stroke-linejoin="round"/>
<path d="M958.098 53.2338L950.336 43.969L952.887 15.0511C952.887 15.0511 954.218 9.83856 947.871 9.24049L924.783 7.20377C924.783 7.20377 919.212 5.879 918.613 11.2915L915.608 45.3639C915.608 45.3639 915.669 49.2305 920.209 49.8879L958.099 53.2304L958.098 53.2338Z" stroke="#D1E3F4" stroke-miterlimit="10" stroke-linecap="round" stroke-linejoin="round"/>
<path d="M1389.25 14.9036L1386.76 43.1428C1386.66 44.2006 1385.73 44.9793 1384.68 44.8863C1383.62 44.793 1382.84 43.8597 1382.93 42.8054L1385.42 14.5663C1385.52 13.5085 1386.45 12.7297 1387.5 12.8227C1388.56 12.9126 1389.34 13.8459 1389.25 14.9036Z" stroke="#D1E3F4" stroke-miterlimit="10" stroke-linecap="round" stroke-linejoin="round"/>
<path d="M1396.9 15.5783L1394.41 43.8175C1394.32 44.8753 1393.39 45.6541 1392.33 45.5611C1391.27 45.4677 1390.5 44.5344 1390.59 43.4801L1393.08 15.241C1393.17 14.1832 1394.11 13.4044 1395.16 13.4974C1396.21 13.587 1397 14.5206 1396.9 15.5783Z" stroke="#D1E3F4" stroke-miterlimit="10" stroke-linecap="round" stroke-linejoin="round"/>
<path d="M1403.87 24.0366L1402.06 44.489C1401.97 45.5468 1401.04 46.3256 1399.98 46.2326C1398.93 46.1393 1398.15 45.2059 1398.24 44.1516L1400.04 23.6993C1400.14 22.6415 1401.07 21.8627 1402.13 21.9557C1403.18 22.0487 1403.96 22.9823 1403.87 24.0366Z" stroke="#D1E3F4" stroke-miterlimit="10" stroke-linecap="round" stroke-linejoin="round"/>
<path d="M1417.98 53.2338L1410.22 43.969L1412.77 15.0511C1412.77 15.0511 1414.1 9.83856 1407.75 9.24049L1384.67 7.20377C1384.67 7.20377 1379.1 5.879 1378.5 11.2915L1375.49 45.3639C1375.49 45.3639 1375.55 49.2305 1380.09 49.8879L1417.98 53.2304L1417.98 53.2338Z" stroke="#D1E3F4" stroke-miterlimit="10" stroke-linecap="round" stroke-linejoin="round"/>
<path d="M1544.68 14.9036L1542.19 43.1428C1542.1 44.2006 1541.16 44.9793 1540.11 44.8863C1539.05 44.793 1538.27 43.8597 1538.37 42.8054L1540.86 14.5663C1540.95 13.5085 1541.88 12.7297 1542.94 12.8227C1544 12.9126 1544.77 13.8459 1544.68 14.9036Z" stroke="#D1E3F4" stroke-miterlimit="10" stroke-linecap="round" stroke-linejoin="round"/>
<path d="M1552.34 15.5783L1549.85 43.8175C1549.75 44.8753 1548.82 45.6541 1547.77 45.5611C1546.71 45.4677 1545.93 44.5344 1546.02 43.4801L1548.51 15.241C1548.61 14.1832 1549.54 13.4044 1550.59 13.4974C1551.65 13.587 1552.43 14.5206 1552.34 15.5783Z" stroke="#D1E3F4" stroke-miterlimit="10" stroke-linecap="round" stroke-linejoin="round"/>
<path d="M1559.3 24.0366L1557.5 44.489C1557.4 45.5468 1556.47 46.3256 1555.42 46.2326C1554.36 46.1393 1553.58 45.2059 1553.67 44.1516L1555.48 23.6993C1555.57 22.6415 1556.5 21.8627 1557.56 21.9557C1558.61 22.0487 1559.4 22.9823 1559.3 24.0366Z" stroke="#D1E3F4" stroke-miterlimit="10" stroke-linecap="round" stroke-linejoin="round"/>
<path d="M1573.41 53.2338L1565.65 43.969L1568.2 15.0511C1568.2 15.0511 1569.53 9.83856 1563.19 9.24049L1540.1 7.20377C1540.1 7.20377 1534.53 5.879 1533.93 11.2915L1530.92 45.3639C1530.92 45.3639 1530.99 49.2305 1535.53 49.8879L1573.42 53.2304L1573.41 53.2338Z" stroke="#D1E3F4" stroke-miterlimit="10" stroke-linecap="round" stroke-linejoin="round"/>
<path d="M483.041 148.236L480.55 176.475C480.456 177.533 479.523 178.312 478.469 178.219C477.411 178.125 476.632 177.192 476.725 176.138L479.216 147.898C479.31 146.841 480.243 146.062 481.297 146.155C482.355 146.245 483.134 147.178 483.041 148.236Z" stroke="#D1E3F4" stroke-miterlimit="10" stroke-linecap="round" stroke-linejoin="round"/>
<path d="M490.697 148.911L488.206 177.15C488.112 178.208 487.179 178.986 486.125 178.893C485.067 178.8 484.288 177.867 484.381 176.812L486.872 148.573C486.966 147.515 487.899 146.737 488.953 146.83C490.008 146.919 490.79 147.853 490.697 148.911Z" stroke="#D1E3F4" stroke-miterlimit="10" stroke-linecap="round" stroke-linejoin="round"/>
<path d="M497.662 157.369L495.857 177.821C495.764 178.879 494.831 179.658 493.776 179.565C492.719 179.471 491.94 178.538 492.033 177.484L493.837 157.031C493.93 155.974 494.864 155.195 495.918 155.288C496.972 155.381 497.755 156.315 497.662 157.369Z" stroke="#D1E3F4" stroke-miterlimit="10" stroke-linecap="round" stroke-linejoin="round"/>
<path d="M511.774 186.566L504.012 177.301L506.563 148.383C506.563 148.383 507.894 143.171 501.547 142.573L478.459 140.536C478.459 140.536 472.888 139.211 472.289 144.624L469.284 178.696C469.284 178.696 469.345 182.563 473.885 183.22L511.775 186.563L511.774 186.566Z" stroke="#D1E3F4" stroke-miterlimit="10" stroke-linecap="round" stroke-linejoin="round"/>
<path d="M936.144 148.236L933.653 176.475C933.56 177.533 932.627 178.312 931.572 178.219C930.514 178.125 929.736 177.192 929.829 176.138L932.32 147.898C932.413 146.841 933.346 146.062 934.401 146.155C935.459 146.245 936.238 147.178 936.144 148.236Z" stroke="#D1E3F4" stroke-miterlimit="10" stroke-linecap="round" stroke-linejoin="round"/>
<path d="M943.8 148.911L941.309 177.15C941.216 178.208 940.282 178.986 939.228 178.893C938.17 178.8 937.392 177.867 937.485 176.812L939.976 148.573C940.069 147.515 941.002 146.737 942.057 146.83C943.111 146.919 943.894 147.853 943.8 148.911Z" stroke="#D1E3F4" stroke-miterlimit="10" stroke-linecap="round" stroke-linejoin="round"/>
<path d="M950.765 157.369L948.961 177.821C948.868 178.879 947.934 179.658 946.88 179.565C945.822 179.471 945.043 178.538 945.136 177.484L946.941 157.031C947.034 155.974 947.967 155.195 949.022 155.288C950.076 155.381 950.858 156.315 950.765 157.369Z" stroke="#D1E3F4" stroke-miterlimit="10" stroke-linecap="round" stroke-linejoin="round"/>
<path d="M964.878 186.566L957.115 177.301L959.666 148.383C959.666 148.383 960.998 143.171 954.651 142.573L931.563 140.536C931.563 140.536 925.992 139.211 925.393 144.624L922.387 178.696C922.387 178.696 922.449 182.563 926.988 183.22L964.878 186.563L964.878 186.566Z" stroke="#D1E3F4" stroke-miterlimit="10" stroke-linecap="round" stroke-linejoin="round"/>
<path d="M1396.03 148.236L1393.54 176.475C1393.44 177.533 1392.51 178.312 1391.46 178.219C1390.4 178.125 1389.62 177.192 1389.71 176.138L1392.2 147.898C1392.3 146.841 1393.23 146.062 1394.28 146.155C1395.34 146.245 1396.12 147.178 1396.03 148.236Z" stroke="#D1E3F4" stroke-miterlimit="10" stroke-linecap="round" stroke-linejoin="round"/>
<path d="M1403.68 148.911L1401.19 177.15C1401.1 178.208 1400.17 178.986 1399.11 178.893C1398.05 178.8 1397.27 177.867 1397.37 176.812L1399.86 148.573C1399.95 147.515 1400.89 146.737 1401.94 146.83C1402.99 146.919 1403.78 147.853 1403.68 148.911Z" stroke="#D1E3F4" stroke-miterlimit="10" stroke-linecap="round" stroke-linejoin="round"/>
<path d="M1410.65 157.369L1408.84 177.821C1408.75 178.879 1407.82 179.658 1406.76 179.565C1405.71 179.471 1404.93 178.538 1405.02 177.484L1406.82 157.031C1406.92 155.974 1407.85 155.195 1408.9 155.288C1409.96 155.381 1410.74 156.315 1410.65 157.369Z" stroke="#D1E3F4" stroke-miterlimit="10" stroke-linecap="round" stroke-linejoin="round"/>
<path d="M1424.76 186.566L1417 177.301L1419.55 148.383C1419.55 148.383 1420.88 143.171 1414.53 142.573L1391.45 140.536C1391.45 140.536 1385.88 139.211 1385.28 144.624L1382.27 178.696C1382.27 178.696 1382.33 182.563 1386.87 183.22L1424.76 186.563L1424.76 186.566Z" stroke="#D1E3F4" stroke-miterlimit="10" stroke-linecap="round" stroke-linejoin="round"/>
<path d="M1551.46 148.236L1548.97 176.475C1548.88 177.533 1547.94 178.312 1546.89 178.219C1545.83 178.125 1545.05 177.192 1545.15 176.138L1547.64 147.898C1547.73 146.841 1548.66 146.062 1549.72 146.155C1550.78 146.245 1551.55 147.178 1551.46 148.236Z" stroke="#D1E3F4" stroke-miterlimit="10" stroke-linecap="round" stroke-linejoin="round"/>
<path d="M1559.12 148.911L1556.63 177.15C1556.53 178.208 1555.6 178.986 1554.54 178.893C1553.49 178.8 1552.71 177.867 1552.8 176.812L1555.29 148.573C1555.39 147.515 1556.32 146.737 1557.37 146.83C1558.43 146.919 1559.21 147.853 1559.12 148.911Z" stroke="#D1E3F4" stroke-miterlimit="10" stroke-linecap="round" stroke-linejoin="round"/>
<path d="M1566.08 157.369L1564.28 177.821C1564.18 178.879 1563.25 179.658 1562.2 179.565C1561.14 179.471 1560.36 178.538 1560.45 177.484L1562.26 157.031C1562.35 155.974 1563.28 155.195 1564.34 155.288C1565.39 155.381 1566.17 156.315 1566.08 157.369Z" stroke="#D1E3F4" stroke-miterlimit="10" stroke-linecap="round" stroke-linejoin="round"/>
<path d="M1580.19 186.566L1572.43 177.301L1574.98 148.383C1574.98 148.383 1576.31 143.171 1569.97 142.573L1546.88 140.536C1546.88 140.536 1541.31 139.211 1540.71 144.624L1537.7 178.696C1537.7 178.696 1537.77 182.563 1542.3 183.22L1580.19 186.563L1580.19 186.566Z" stroke="#D1E3F4" stroke-miterlimit="10" stroke-linecap="round" stroke-linejoin="round"/>
</svg>
