<svg width="159" height="22" viewBox="0 0 159 22" fill="none" xmlns="http://www.w3.org/2000/svg">
<rect width="159" height="22" rx="11" fill="#7CFAB8"/>
<path d="M144.4 9.2H145.6V8H144.4V9.2ZM144.4 14H145.6V10.4H144.4V14ZM144.994 17C141.682 17 139 14.312 139 11C139 7.688 141.682 5 144.994 5C148.312 5 151 7.688 151 11C151 14.312 148.312 17 144.994 17ZM145 6.2C142.348 6.2 140.2 8.348 140.2 11C140.2 13.652 142.348 15.8 145 15.8C147.652 15.8 149.8 13.652 149.8 11C149.8 8.348 147.652 6.2 145 6.2Z" fill="#18113C"/>
<path d="M14.25 7.76953V10.6582H15.9551C16.4355 10.6582 16.8086 10.5312 17.0742 10.2773C17.3398 10.0234 17.4727 9.66797 17.4727 9.21094C17.4727 8.76562 17.334 8.41406 17.0566 8.15625C16.7793 7.89844 16.4023 7.76953 15.9258 7.76953H14.25ZM14.25 11.8184V15H12.7383V6.54492H16.0957C16.7051 6.54492 17.2266 6.65234 17.6602 6.86719C18.0977 7.08203 18.4336 7.38672 18.668 7.78125C18.9023 8.17188 19.0195 8.63672 19.0195 9.17578C19.0195 9.55078 18.957 9.89844 18.832 10.2188C18.707 10.5391 18.5254 10.8184 18.2871 11.0566C18.0488 11.291 17.7617 11.4688 17.4258 11.5898L19.2715 15H17.5488L15.8848 11.8184H14.25ZM22.7344 9.79102C22.4609 9.79102 22.2168 9.85547 22.002 9.98438C21.7871 10.1133 21.6152 10.291 21.4863 10.5176C21.3574 10.7402 21.2832 10.9961 21.2637 11.2852H24.1641C24.1523 10.9922 24.0859 10.7344 23.9648 10.5117C23.8438 10.2852 23.6777 10.1094 23.4668 9.98438C23.2559 9.85547 23.0117 9.79102 22.7344 9.79102ZM24.1699 13.1426H25.5352C25.4727 13.5332 25.3164 13.877 25.0664 14.1738C24.8203 14.4707 24.502 14.7031 24.1113 14.8711C23.7207 15.0391 23.2793 15.123 22.7871 15.123C22.166 15.123 21.6309 14.9941 21.1816 14.7363C20.7363 14.4746 20.3945 14.1055 20.1562 13.6289C19.918 13.1484 19.7988 12.5781 19.7988 11.918C19.7988 11.4258 19.8672 10.9805 20.0039 10.582C20.1406 10.1836 20.3359 9.8418 20.5898 9.55664C20.8477 9.26758 21.1562 9.04688 21.5156 8.89453C21.875 8.73828 22.2793 8.66016 22.7285 8.66016C23.3145 8.66016 23.8223 8.78906 24.252 9.04688C24.6816 9.30078 25.0117 9.66211 25.2422 10.1309C25.4766 10.5957 25.5938 11.1426 25.5938 11.7715V12.2461H21.252V12.334C21.252 12.666 21.3164 12.957 21.4453 13.207C21.5742 13.457 21.7539 13.6523 21.9844 13.793C22.2188 13.9297 22.4961 13.998 22.8164 13.998C23.1562 13.998 23.4473 13.9199 23.6895 13.7637C23.9316 13.6074 24.0918 13.4004 24.1699 13.1426ZM32.0098 11.0039H30.6328C30.5938 10.7852 30.5156 10.5879 30.3984 10.4121C30.2852 10.2363 30.1348 10.0977 29.9473 9.99609C29.7598 9.89453 29.5352 9.84375 29.2734 9.84375C28.9648 9.84375 28.6973 9.92578 28.4707 10.0898C28.248 10.2539 28.0742 10.4902 27.9492 10.7988C27.8242 11.1035 27.7617 11.4688 27.7617 11.8945C27.7617 12.3281 27.8242 12.6992 27.9492 13.0078C28.0742 13.3125 28.25 13.5449 28.4766 13.7051C28.707 13.8652 28.9766 13.9453 29.2852 13.9453C29.6562 13.9453 29.957 13.8457 30.1875 13.6465C30.4219 13.4473 30.5723 13.1719 30.6387 12.8203H32.0156C31.9766 13.2812 31.8379 13.6855 31.5996 14.0332C31.3613 14.377 31.043 14.6445 30.6445 14.8359C30.2461 15.0273 29.7871 15.123 29.2676 15.123C28.6621 15.123 28.1348 14.9941 27.6855 14.7363C27.2402 14.4785 26.8945 14.1094 26.6484 13.6289C26.4023 13.1445 26.2793 12.5664 26.2793 11.8945C26.2793 11.2305 26.4023 10.6582 26.6484 10.1777C26.8945 9.69336 27.2402 9.32031 27.6855 9.05859C28.1309 8.79297 28.6543 8.66016 29.2559 8.66016C29.666 8.66016 30.0352 8.7207 30.3633 8.8418C30.6914 8.96289 30.9727 9.13086 31.207 9.3457C31.4453 9.55664 31.6328 9.80469 31.7695 10.0898C31.9062 10.3711 31.9863 10.6758 32.0098 11.0039ZM35.6367 15.123C35.0312 15.123 34.502 14.9941 34.0488 14.7363C33.5996 14.4785 33.25 14.1094 33 13.6289C32.7539 13.1445 32.6309 12.5664 32.6309 11.8945C32.6309 11.2266 32.7559 10.6523 33.0059 10.1719C33.2559 9.6875 33.6055 9.31445 34.0547 9.05273C34.5039 8.79102 35.0312 8.66016 35.6367 8.66016C36.2422 8.66016 36.7695 8.79102 37.2188 9.05273C37.668 9.31055 38.0176 9.68164 38.2676 10.166C38.5176 10.6465 38.6426 11.2227 38.6426 11.8945C38.6426 12.5664 38.5176 13.1445 38.2676 13.6289C38.0215 14.1094 37.6719 14.4785 37.2188 14.7363C36.7695 14.9941 36.2422 15.123 35.6367 15.123ZM35.6367 13.9688C35.9453 13.9688 36.2129 13.8887 36.4395 13.7285C36.6699 13.5645 36.8477 13.3281 36.9727 13.0195C37.0977 12.7109 37.1602 12.3359 37.1602 11.8945C37.1602 11.457 37.0977 11.084 36.9727 10.7754C36.8477 10.4629 36.6699 10.2266 36.4395 10.0664C36.2129 9.90234 35.9453 9.82031 35.6367 9.82031C35.3281 9.82031 35.0605 9.90234 34.834 10.0664C34.6074 10.2266 34.4297 10.4629 34.3008 10.7754C34.1758 11.084 34.1133 11.457 34.1133 11.8945C34.1133 12.3359 34.1758 12.7109 34.3008 13.0195C34.4258 13.3281 34.6016 13.5645 34.8281 13.7285C35.0586 13.8887 35.3281 13.9688 35.6367 13.9688ZM39.5801 15V8.78906H40.9805V9.86719H41.0098C41.1426 9.50781 41.3652 9.21875 41.6777 9C41.9902 8.78125 42.3574 8.67188 42.7793 8.67188C43.2168 8.67188 43.5859 8.78125 43.8867 9C44.1914 9.21484 44.4004 9.52148 44.5137 9.91992H44.5488C44.6504 9.66602 44.7949 9.44531 44.9824 9.25781C45.1699 9.07031 45.3926 8.92578 45.6504 8.82422C45.9082 8.72266 46.1855 8.67188 46.4824 8.67188C46.8887 8.67188 47.2441 8.75781 47.5488 8.92969C47.8535 9.10156 48.0898 9.34375 48.2578 9.65625C48.4258 9.96484 48.5098 10.3262 48.5098 10.7402V15H47.0508V11.0977C47.0508 10.7148 46.9531 10.4199 46.7578 10.2129C46.5664 10.0059 46.293 9.90234 45.9375 9.90234C45.7031 9.90234 45.4961 9.95703 45.3164 10.0664C45.1406 10.1719 45.002 10.3203 44.9004 10.5117C44.8027 10.6992 44.7539 10.916 44.7539 11.1621V15H43.3359V11.0215C43.3359 10.6738 43.2363 10.4004 43.0371 10.2012C42.8418 10.002 42.5742 9.90234 42.2344 9.90234C42 9.90234 41.793 9.95898 41.6133 10.0723C41.4336 10.1816 41.293 10.334 41.1914 10.5293C41.0898 10.7246 41.0391 10.9473 41.0391 11.1973V15H39.5801ZM49.6816 15V8.78906H51.082V9.86719H51.1113C51.2441 9.50781 51.4668 9.21875 51.7793 9C52.0918 8.78125 52.459 8.67188 52.8809 8.67188C53.3184 8.67188 53.6875 8.78125 53.9883 9C54.293 9.21484 54.502 9.52148 54.6152 9.91992H54.6504C54.752 9.66602 54.8965 9.44531 55.084 9.25781C55.2715 9.07031 55.4941 8.92578 55.752 8.82422C56.0098 8.72266 56.2871 8.67188 56.584 8.67188C56.9902 8.67188 57.3457 8.75781 57.6504 8.92969C57.9551 9.10156 58.1914 9.34375 58.3594 9.65625C58.5273 9.96484 58.6113 10.3262 58.6113 10.7402V15H57.1523V11.0977C57.1523 10.7148 57.0547 10.4199 56.8594 10.2129C56.668 10.0059 56.3945 9.90234 56.0391 9.90234C55.8047 9.90234 55.5977 9.95703 55.418 10.0664C55.2422 10.1719 55.1035 10.3203 55.002 10.5117C54.9043 10.6992 54.8555 10.916 54.8555 11.1621V15H53.4375V11.0215C53.4375 10.6738 53.3379 10.4004 53.1387 10.2012C52.9434 10.002 52.6758 9.90234 52.3359 9.90234C52.1016 9.90234 51.8945 9.95898 51.7148 10.0723C51.5352 10.1816 51.3945 10.334 51.293 10.5293C51.1914 10.7246 51.1406 10.9473 51.1406 11.1973V15H49.6816ZM62.4609 9.79102C62.1875 9.79102 61.9434 9.85547 61.7285 9.98438C61.5137 10.1133 61.3418 10.291 61.2129 10.5176C61.084 10.7402 61.0098 10.9961 60.9902 11.2852H63.8906C63.8789 10.9922 63.8125 10.7344 63.6914 10.5117C63.5703 10.2852 63.4043 10.1094 63.1934 9.98438C62.9824 9.85547 62.7383 9.79102 62.4609 9.79102ZM63.8965 13.1426H65.2617C65.1992 13.5332 65.043 13.877 64.793 14.1738C64.5469 14.4707 64.2285 14.7031 63.8379 14.8711C63.4473 15.0391 63.0059 15.123 62.5137 15.123C61.8926 15.123 61.3574 14.9941 60.9082 14.7363C60.4629 14.4746 60.1211 14.1055 59.8828 13.6289C59.6445 13.1484 59.5254 12.5781 59.5254 11.918C59.5254 11.4258 59.5938 10.9805 59.7305 10.582C59.8672 10.1836 60.0625 9.8418 60.3164 9.55664C60.5742 9.26758 60.8828 9.04688 61.2422 8.89453C61.6016 8.73828 62.0059 8.66016 62.4551 8.66016C63.041 8.66016 63.5488 8.78906 63.9785 9.04688C64.4082 9.30078 64.7383 9.66211 64.9688 10.1309C65.2031 10.5957 65.3203 11.1426 65.3203 11.7715V12.2461H60.9785V12.334C60.9785 12.666 61.043 12.957 61.1719 13.207C61.3008 13.457 61.4805 13.6523 61.7109 13.793C61.9453 13.9297 62.2227 13.998 62.543 13.998C62.8828 13.998 63.1738 13.9199 63.416 13.7637C63.6582 13.6074 63.8184 13.4004 63.8965 13.1426ZM66.2637 15V8.78906H67.6641V9.85547H67.6934C67.8613 9.48828 68.1094 9.19922 68.4375 8.98828C68.7656 8.77734 69.168 8.67188 69.6445 8.67188C70.1016 8.67188 70.4902 8.76562 70.8105 8.95312C71.1309 9.13672 71.375 9.40234 71.543 9.75C71.7109 10.0938 71.7949 10.5059 71.7949 10.9863V15H70.3359V11.2793C70.3359 10.8379 70.2324 10.5 70.0254 10.2656C69.8223 10.0273 69.5117 9.9082 69.0938 9.9082C68.8164 9.9082 68.5742 9.9707 68.3672 10.0957C68.1602 10.2207 68 10.3965 67.8867 10.623C67.7773 10.8457 67.7227 11.1055 67.7227 11.4023V15H66.2637ZM75.2871 15.0996C74.7637 15.0996 74.3086 14.9688 73.9219 14.707C73.5391 14.4453 73.2402 14.0762 73.0254 13.5996C72.8145 13.1191 72.709 12.5488 72.709 11.8887C72.709 11.2363 72.8145 10.6699 73.0254 10.1895C73.2402 9.70898 73.5391 9.33789 73.9219 9.07617C74.3086 8.81445 74.7637 8.68359 75.2871 8.68359C75.7324 8.68359 76.123 8.78906 76.459 9C76.7949 9.21094 77.0449 9.48828 77.209 9.83203H77.2441V6.54492H78.7031V15H77.2734V13.9395H77.25C77.082 14.2871 76.8262 14.5684 76.4824 14.7832C76.1387 14.9941 75.7402 15.0996 75.2871 15.0996ZM75.7266 9.88477C75.4141 9.88477 75.1426 9.9668 74.9121 10.1309C74.6855 10.2949 74.5098 10.5273 74.3848 10.8281C74.2637 11.1289 74.2031 11.4844 74.2031 11.8945C74.2031 12.3086 74.2637 12.666 74.3848 12.9668C74.5098 13.2637 74.6855 13.4941 74.9121 13.6582C75.1426 13.8223 75.4141 13.9043 75.7266 13.9043C76.0352 13.9043 76.3027 13.8223 76.5293 13.6582C76.7559 13.4941 76.9316 13.2617 77.0566 12.9609C77.1855 12.6602 77.25 12.3047 77.25 11.8945C77.25 11.4883 77.1855 11.1348 77.0566 10.834C76.9316 10.5332 76.7559 10.3008 76.5293 10.1367C76.3027 9.96875 76.0352 9.88477 75.7266 9.88477ZM82.6055 9.79102C82.332 9.79102 82.0879 9.85547 81.873 9.98438C81.6582 10.1133 81.4863 10.291 81.3574 10.5176C81.2285 10.7402 81.1543 10.9961 81.1348 11.2852H84.0352C84.0234 10.9922 83.957 10.7344 83.8359 10.5117C83.7148 10.2852 83.5488 10.1094 83.3379 9.98438C83.127 9.85547 82.8828 9.79102 82.6055 9.79102ZM84.041 13.1426H85.4062C85.3438 13.5332 85.1875 13.877 84.9375 14.1738C84.6914 14.4707 84.373 14.7031 83.9824 14.8711C83.5918 15.0391 83.1504 15.123 82.6582 15.123C82.0371 15.123 81.502 14.9941 81.0527 14.7363C80.6074 14.4746 80.2656 14.1055 80.0273 13.6289C79.7891 13.1484 79.6699 12.5781 79.6699 11.918C79.6699 11.4258 79.7383 10.9805 79.875 10.582C80.0117 10.1836 80.207 9.8418 80.4609 9.55664C80.7188 9.26758 81.0273 9.04688 81.3867 8.89453C81.7461 8.73828 82.1504 8.66016 82.5996 8.66016C83.1855 8.66016 83.6934 8.78906 84.123 9.04688C84.5527 9.30078 84.8828 9.66211 85.1133 10.1309C85.3477 10.5957 85.4648 11.1426 85.4648 11.7715V12.2461H81.123V12.334C81.123 12.666 81.1875 12.957 81.3164 13.207C81.4453 13.457 81.625 13.6523 81.8555 13.793C82.0898 13.9297 82.3672 13.998 82.6875 13.998C83.0273 13.998 83.3184 13.9199 83.5605 13.7637C83.8027 13.6074 83.9629 13.4004 84.041 13.1426ZM88.7285 15.0996C88.2051 15.0996 87.75 14.9688 87.3633 14.707C86.9805 14.4453 86.6816 14.0762 86.4668 13.5996C86.2559 13.1191 86.1504 12.5488 86.1504 11.8887C86.1504 11.2363 86.2559 10.6699 86.4668 10.1895C86.6816 9.70898 86.9805 9.33789 87.3633 9.07617C87.75 8.81445 88.2051 8.68359 88.7285 8.68359C89.1738 8.68359 89.5645 8.78906 89.9004 9C90.2363 9.21094 90.4863 9.48828 90.6504 9.83203H90.6855V6.54492H92.1445V15H90.7148V13.9395H90.6914C90.5234 14.2871 90.2676 14.5684 89.9238 14.7832C89.5801 14.9941 89.1816 15.0996 88.7285 15.0996ZM89.168 9.88477C88.8555 9.88477 88.584 9.9668 88.3535 10.1309C88.127 10.2949 87.9512 10.5273 87.8262 10.8281C87.7051 11.1289 87.6445 11.4844 87.6445 11.8945C87.6445 12.3086 87.7051 12.666 87.8262 12.9668C87.9512 13.2637 88.127 13.4941 88.3535 13.6582C88.584 13.8223 88.8555 13.9043 89.168 13.9043C89.4766 13.9043 89.7441 13.8223 89.9707 13.6582C90.1973 13.4941 90.373 13.2617 90.498 12.9609C90.627 12.6602 90.6914 12.3047 90.6914 11.8945C90.6914 11.4883 90.627 11.1348 90.498 10.834C90.373 10.5332 90.1973 10.3008 89.9707 10.1367C89.7441 9.96875 89.4766 9.88477 89.168 9.88477ZM96.1758 15V9.91406H95.3262V8.80664H96.1758V8.25586C96.1758 7.65039 96.3262 7.20312 96.627 6.91406C96.9316 6.625 97.4219 6.48047 98.0977 6.48047C98.2422 6.48047 98.3867 6.48633 98.5312 6.49805C98.6758 6.50977 98.793 6.52539 98.8828 6.54492V7.56445C98.8203 7.55664 98.748 7.54883 98.666 7.54102C98.5879 7.5332 98.5059 7.5293 98.4199 7.5293C98.1426 7.5293 97.9375 7.5957 97.8047 7.72852C97.6758 7.85742 97.6113 8.04688 97.6113 8.29688V8.80664H98.8535V9.91406H97.6348V15H96.1758ZM102.34 15.123C101.734 15.123 101.205 14.9941 100.752 14.7363C100.303 14.4785 99.9531 14.1094 99.7031 13.6289C99.457 13.1445 99.334 12.5664 99.334 11.8945C99.334 11.2266 99.459 10.6523 99.709 10.1719C99.959 9.6875 100.309 9.31445 100.758 9.05273C101.207 8.79102 101.734 8.66016 102.34 8.66016C102.945 8.66016 103.473 8.79102 103.922 9.05273C104.371 9.31055 104.721 9.68164 104.971 10.166C105.221 10.6465 105.346 11.2227 105.346 11.8945C105.346 12.5664 105.221 13.1445 104.971 13.6289C104.725 14.1094 104.375 14.4785 103.922 14.7363C103.473 14.9941 102.945 15.123 102.34 15.123ZM102.34 13.9688C102.648 13.9688 102.916 13.8887 103.143 13.7285C103.373 13.5645 103.551 13.3281 103.676 13.0195C103.801 12.7109 103.863 12.3359 103.863 11.8945C103.863 11.457 103.801 11.084 103.676 10.7754C103.551 10.4629 103.373 10.2266 103.143 10.0664C102.916 9.90234 102.648 9.82031 102.34 9.82031C102.031 9.82031 101.764 9.90234 101.537 10.0664C101.311 10.2266 101.133 10.4629 101.004 10.7754C100.879 11.084 100.816 11.457 100.816 11.8945C100.816 12.3359 100.879 12.7109 101.004 13.0195C101.129 13.3281 101.305 13.5645 101.531 13.7285C101.762 13.8887 102.031 13.9688 102.34 13.9688ZM106.283 15V8.78906H107.684V9.87305H107.713C107.818 9.49414 108 9.20117 108.258 8.99414C108.52 8.78711 108.834 8.68359 109.201 8.68359C109.295 8.68359 109.381 8.69141 109.459 8.70703C109.537 8.71875 109.604 8.73047 109.658 8.74219V10.0605C109.596 10.0371 109.512 10.0176 109.406 10.002C109.301 9.98633 109.188 9.97852 109.066 9.97852C108.652 9.97852 108.328 10.1035 108.094 10.3535C107.859 10.6035 107.742 10.9473 107.742 11.3848V15H106.283ZM113.508 17.3086C113.48 17.3086 113.424 17.3066 113.338 17.3027C113.256 17.3027 113.174 17.3008 113.092 17.2969C113.014 17.2969 112.961 17.293 112.934 17.2852V16.1309C112.961 16.1348 113.002 16.1387 113.057 16.1426C113.111 16.1465 113.168 16.1484 113.227 16.1484C113.285 16.1523 113.328 16.1543 113.355 16.1543C113.656 16.1543 113.891 16.0918 114.059 15.9668C114.227 15.8457 114.35 15.6406 114.428 15.3516C114.428 15.3438 114.436 15.3125 114.451 15.2578C114.467 15.2031 114.482 15.1484 114.498 15.0938C114.514 15.0391 114.52 15.0098 114.516 15.0059L112.307 8.78906H113.9L115.359 13.7578H115.389L116.854 8.78906H118.389L116.139 15.2461C116.006 15.6328 115.859 15.957 115.699 16.2188C115.543 16.4844 115.361 16.6973 115.154 16.8574C114.951 17.0176 114.715 17.1328 114.445 17.2031C114.176 17.2734 113.863 17.3086 113.508 17.3086ZM121.652 15.123C121.047 15.123 120.518 14.9941 120.064 14.7363C119.615 14.4785 119.266 14.1094 119.016 13.6289C118.77 13.1445 118.646 12.5664 118.646 11.8945C118.646 11.2266 118.771 10.6523 119.021 10.1719C119.271 9.6875 119.621 9.31445 120.07 9.05273C120.52 8.79102 121.047 8.66016 121.652 8.66016C122.258 8.66016 122.785 8.79102 123.234 9.05273C123.684 9.31055 124.033 9.68164 124.283 10.166C124.533 10.6465 124.658 11.2227 124.658 11.8945C124.658 12.5664 124.533 13.1445 124.283 13.6289C124.037 14.1094 123.688 14.4785 123.234 14.7363C122.785 14.9941 122.258 15.123 121.652 15.123ZM121.652 13.9688C121.961 13.9688 122.229 13.8887 122.455 13.7285C122.686 13.5645 122.863 13.3281 122.988 13.0195C123.113 12.7109 123.176 12.3359 123.176 11.8945C123.176 11.457 123.113 11.084 122.988 10.7754C122.863 10.4629 122.686 10.2266 122.455 10.0664C122.229 9.90234 121.961 9.82031 121.652 9.82031C121.344 9.82031 121.076 9.90234 120.85 10.0664C120.623 10.2266 120.445 10.4629 120.316 10.7754C120.191 11.084 120.129 11.457 120.129 11.8945C120.129 12.3359 120.191 12.7109 120.316 13.0195C120.441 13.3281 120.617 13.5645 120.844 13.7285C121.074 13.8887 121.344 13.9688 121.652 13.9688ZM131.104 8.78906V15H129.697V13.9219H129.668C129.504 14.3008 129.264 14.5938 128.947 14.8008C128.635 15.0078 128.242 15.1113 127.77 15.1113C127.32 15.1113 126.93 15.0195 126.598 14.8359C126.27 14.6484 126.016 14.3828 125.836 14.0391C125.656 13.6953 125.566 13.2832 125.566 12.8027V8.78906H127.025V12.5098C127.025 12.9551 127.131 13.2949 127.342 13.5293C127.557 13.7637 127.869 13.8809 128.279 13.8809C128.561 13.8809 128.803 13.8184 129.006 13.6934C129.209 13.5684 129.365 13.3945 129.475 13.1719C129.588 12.9453 129.645 12.6816 129.645 12.3809V8.78906H131.104Z" fill="#18113C"/>
</svg>
